<?xml version="1.0" encoding="UTF-8" standalone="no"?>
<!-- Created with Inkscape (http://www.inkscape.org/) -->

<svg
   xmlns:dc="http://purl.org/dc/elements/1.1/"
   xmlns:cc="http://creativecommons.org/ns#"
   xmlns:rdf="http://www.w3.org/1999/02/22-rdf-syntax-ns#"
   xmlns:svg="http://www.w3.org/2000/svg"
   xmlns="http://www.w3.org/2000/svg"
   xmlns:sodipodi="http://sodipodi.sourceforge.net/DTD/sodipodi-0.dtd"
   xmlns:inkscape="http://www.inkscape.org/namespaces/inkscape"
   version="1.1"
   id="svg869"
   width="126.66442"
   height="72.778107"
   viewBox="0 0 126.66442 72.778106"
   sodipodi:docname="RöSeNa.svg"
   inkscape:version="0.92.3 (2405546, 2018-03-11)">
  <metadata
     id="metadata875">
    <rdf:RDF>
      <cc:Work
         rdf:about="">
        <dc:format>image/svg+xml</dc:format>
        <dc:type
           rdf:resource="http://purl.org/dc/dcmitype/StillImage" />
        <dc:title></dc:title>
      </cc:Work>
    </rdf:RDF>
  </metadata>
  <defs
     id="defs873" />
  <sodipodi:namedview
     pagecolor="#ffffff"
     bordercolor="#666666"
     borderopacity="1"
     objecttolerance="10"
     gridtolerance="10"
     guidetolerance="10"
     inkscape:pageopacity="0"
     inkscape:pageshadow="2"
     inkscape:window-width="1853"
     inkscape:window-height="1025"
     id="namedview871"
     showgrid="false"
     inkscape:zoom="4.5394509"
     inkscape:cx="17.360674"
     inkscape:cy="13.139567"
     inkscape:window-x="1987"
     inkscape:window-y="27"
     inkscape:window-maximized="1"
     inkscape:current-layer="layer1"
     fit-margin-top="0"
     fit-margin-left="0"
     fit-margin-right="0"
     fit-margin-bottom="0" />
  <g
     inkscape:groupmode="layer"
     id="layer1"
     inkscape:label="path layer"
     style="display:inline;opacity:1"
     transform="translate(-54.020369,7.1021386)">
    <g
       id="g914"
       transform="translate(3.9026006e-8,-28.861045)">
      <path
         sodipodi:nodetypes="ccccc"
         inkscape:connector-curvature="0"
         id="path882"
         d="M 70.485577,83.025 C 82.182126,78.696948 94.879375,76.787255 108.3375,76.716346 108.48202,72.394911 107.93342,68.899779 111.375,64.410577 95.133451,53.535705 74.71293,34.120862 54.742303,46.390319 62.995162,57.756695 66.837922,70.363411 70.485577,83.025 Z"
         style="fill:#de4a2a;fill-opacity:1;stroke:#dedb2a;stroke-width:1px;stroke-linecap:butt;stroke-linejoin:miter;stroke-opacity:1" />
      <path
         sodipodi:nodetypes="ccccc"
         inkscape:connector-curvature="0"
         id="path884"
         d="m 88.788462,22.352884 c 22.958978,2.97277 38.409718,16.21191 51.248078,33.023077 -8.70778,5.030123 -15.8899,9.760117 -18.30289,13.551923 C 113.36044,67.331696 103.01926,58.469658 93.227885,51.6375 92.693687,41.789997 91.593666,31.993932 88.788462,22.352884 Z"
         style="fill:#3746a7;fill-opacity:1;stroke:#dedb2a;stroke-width:1px;stroke-linecap:butt;stroke-linejoin:miter;stroke-opacity:1" />
      <path
         sodipodi:nodetypes="ccccc"
         inkscape:connector-curvature="0"
         id="path886"
         d="m 167.42113,62.69185 7.71018,-10.794257 c -10.36997,-2.612883 -20.72344,-3.186454 -35.09477,3.478368 -6.61352,4.185653 -14.02496,7.855005 -18.30289,13.551923 28.55207,4.005536 27.5564,-6.136694 45.68748,-6.236034 z"
         style="fill:#de4a2a;fill-opacity:1;stroke:#dedb2a;stroke-width:1px;stroke-linecap:butt;stroke-linejoin:miter;stroke-opacity:1" />
      <path
         sodipodi:nodetypes="cccc"
         inkscape:connector-curvature="0"
         id="path888"
         d="m 140.27027,76.790472 c 10.63811,0.74985 20.46146,3.400798 30.23493,6.168146 1.87126,-6.350169 5.29724,-11.560205 9.36237,-16.301531 -19.87789,-8.801256 -30.41224,0.149945 -39.5973,10.133385 z"
         style="fill:#3746a7;fill-opacity:1;stroke:#dedb2a;stroke-width:1px;stroke-linecap:butt;stroke-linejoin:miter;stroke-opacity:1" />
      <path
         sodipodi:nodetypes="cccc"
         inkscape:connector-curvature="0"
         id="path890"
         d="m 121.38032,87.034001 c -9.95487,-0.197 -17.53099,-11.007899 -10.00532,-22.623424 11.23957,7.171531 23.84925,6.455501 39.63445,2.356656 -16.69408,13.703814 -15.71571,19.91814 -29.62913,20.266768 z"
         style="fill:#dedb2a;fill-opacity:1;stroke:#dedb2a;stroke-width:1px;stroke-linecap:butt;stroke-linejoin:miter;stroke-opacity:1" />
      <path
         sodipodi:nodetypes="ccccc"
         inkscape:connector-curvature="0"
         id="path896"
         d="m 68.069906,84.170219 c 3.401859,2.631459 5.249671,6.039942 6.608729,9.692802 12.792726,-5.716723 30.537305,-5.293149 46.701685,-6.82902 -4.78062,-0.191642 -9.42095,-1.435416 -13.04282,-10.317655 -18.734708,0.391949 -31.206009,3.2513 -40.267594,7.453873 z"
         style="fill:#3746a7;fill-opacity:1;stroke:#dedb2a;stroke-width:1px;stroke-linecap:butt;stroke-linejoin:miter;stroke-opacity:1" />
      <path
         sodipodi:nodetypes="ccccc"
         inkscape:connector-curvature="0"
         id="path898"
         d="m 167.20084,93.202148 c 0.47654,-3.41451 1.36577,-6.82902 3.30436,-10.24353 -9.74195,-2.616642 -19.23208,-5.652999 -30.23493,-6.168146 -5.16696,5.835282 -10.68273,10.923107 -18.88995,10.243529 16.98081,0.348746 33.06514,1.593976 45.82052,6.168147 z"
         style="fill:#3746a7;fill-opacity:1;stroke:#dedb2a;stroke-width:1px;stroke-linecap:butt;stroke-linejoin:miter;stroke-opacity:1" />
      <path
         sodipodi:nodetypes="ccccc"
         inkscape:connector-curvature="0"
         id="path918"
         d="M 75.859615,75.392308 65.578846,51.559615 c 12.875916,0.07643 14.67086,1.622066 16.511539,4.673077 1.987812,5.614493 -4.419469,7.354328 -10.28077,9.346154 11.323161,-2.315332 12.187275,3.908458 15.265385,8.255769"
         style="fill:none;stroke:#dedb2a;stroke-width:1.00157475;stroke-linecap:round;stroke-linejoin:round;stroke-miterlimit:4;stroke-dasharray:none;stroke-opacity:1" />
      <path
         sodipodi:nodetypes="ccccc"
         inkscape:connector-curvature="0"
         id="path920"
         d="m 94.746635,61.7625 c -3.531029,-0.305918 -6.681236,0.522933 -6.853846,5.685577 -0.115817,2.328833 3.447298,5.504524 6.308653,5.257211 2.226129,0.179102 6.098438,-1.54773 6.191828,-3.777404 0.14833,-3.929687 -2.631357,-6.701008 -5.646635,-7.165384 z"
         style="fill:none;stroke:#dedb2a;stroke-width:1px;stroke-linecap:round;stroke-linejoin:round;stroke-opacity:1" />
      <path
         sodipodi:nodetypes="ccccc"
         inkscape:connector-curvature="0"
         id="path922"
         d="m 88.437981,56.7 c -0.485184,-0.03086 -0.885242,0.02341 -0.856731,0.50625 -0.09,0.451214 0.196412,0.676576 0.623077,0.817788 C 88.891362,58.15516 89.139148,58.035282 89.1,57.751442 89.16588,57.209926 88.994365,56.826673 88.437981,56.7 Z"
         style="fill:#dedb2a;fill-opacity:1;stroke:#dedb2a;stroke-width:1.00157475;stroke-linecap:round;stroke-linejoin:round;stroke-miterlimit:4;stroke-dasharray:none;stroke-opacity:1" />
      <path
         sodipodi:nodetypes="cccc"
         inkscape:connector-curvature="0"
         id="path924"
         d="m 103.78125,64.838942 c -0.46175,0.05987 -0.61527,0.251835 -0.35048,0.623077 0.33477,0.362794 0.70688,0.182543 0.77885,-0.03894 -0.0773,-0.691458 -0.22918,-0.5673 -0.42837,-0.584137 z"
         style="fill:#dedb2a;fill-opacity:1;stroke:#dedb2a;stroke-width:1.00157475;stroke-linecap:round;stroke-linejoin:round;stroke-miterlimit:4;stroke-dasharray:none;stroke-opacity:1" />
      <path
         sodipodi:nodetypes="cccccc"
         inkscape:connector-curvature="0"
         id="path926"
         d="m 110.59615,37.189904 c -2.42462,-3.981742 -5.04647,-7.607213 -10.631246,-5.880289 -3.7439,1.693271 -1.12647,5.263714 2.570196,8.1 4.93305,4.850225 4.77006,7.100423 4.75096,9.424039 -0.001,2.774617 -1.9085,3.870142 -6.26971,2.803846 -3.913563,-1.751844 -3.958298,-4.833597 -4.712023,-7.671635"
         style="fill:none;stroke:#dedb2a;stroke-width:1.00157475;stroke-linecap:round;stroke-linejoin:round;stroke-miterlimit:4;stroke-dasharray:none;stroke-opacity:1" />
      <path
         sodipodi:nodetypes="cccc"
         inkscape:connector-curvature="0"
         id="path928"
         d="M 127.53606,48.522115 119.51394,41.901923 109.70048,56.7 l 7.82741,5.607692"
         style="fill:none;stroke:#dedb2a;stroke-width:1px;stroke-linecap:round;stroke-linejoin:round;stroke-opacity:1" />
      <path
         sodipodi:nodetypes="cc"
         inkscape:connector-curvature="0"
         id="path930"
         d="m 114.76298,49.184134 7.8274,6.152885"
         style="fill:none;stroke:#dedb2a;stroke-width:1.00157475;stroke-linecap:round;stroke-linejoin:round;stroke-miterlimit:4;stroke-dasharray:none;stroke-opacity:1" />
      <path
         inkscape:connector-curvature="0"
         id="path932"
         d="m 148.60385,75.548077 9.07355,-7.126443 -1.83028,8.1 9.5798,-8.1"
         style="fill:none;stroke:#dedb2a;stroke-width:1.00157475;stroke-linecap:round;stroke-linejoin:round;stroke-miterlimit:4;stroke-dasharray:none;stroke-opacity:1" />
      <path
         sodipodi:nodetypes="cccc"
         inkscape:connector-curvature="0"
         id="path934"
         d="m 161.45481,78.040384 8.1,-8.333654 c 1.33458,-0.843317 2.40236,-0.219224 3.54375,0 l -5.37404,9.424039"
         style="fill:none;stroke:#dedb2a;stroke-width:1.00157475;stroke-linecap:round;stroke-linejoin:round;stroke-miterlimit:4;stroke-dasharray:none;stroke-opacity:1" />
      <path
         inkscape:connector-curvature="0"
         id="path936"
         d="m 164.72596,74.691346 4.3226,1.752404"
         style="fill:none;stroke:#dedb2a;stroke-width:1.00157475;stroke-linecap:round;stroke-linejoin:miter;stroke-miterlimit:4;stroke-dasharray:none;stroke-opacity:1" />
    </g>
  </g>
</svg>
