<?xml version="1.0" encoding="UTF-8" standalone="no"?>
<!-- Created with Inkscape (http://www.inkscape.org/) -->

<svg
   xmlns:osb="http://www.openswatchbook.org/uri/2009/osb"
   xmlns:dc="http://purl.org/dc/elements/1.1/"
   xmlns:cc="http://creativecommons.org/ns#"
   xmlns:rdf="http://www.w3.org/1999/02/22-rdf-syntax-ns#"
   xmlns:svg="http://www.w3.org/2000/svg"
   xmlns="http://www.w3.org/2000/svg"
   xmlns:sodipodi="http://sodipodi.sourceforge.net/DTD/sodipodi-0.dtd"
   xmlns:inkscape="http://www.inkscape.org/namespaces/inkscape"
   version="1.1"
   id="svg815"
   viewBox="0 0 112.16316 167.33113"
   sodipodi:docname="wappen.svg"
   inkscape:version="0.92.4 (5da689c313, 2019-01-14)">
  <metadata
     id="metadata821">
    <rdf:RDF>
      <cc:Work
         rdf:about="">
        <dc:format>image/svg+xml</dc:format>
        <dc:type
           rdf:resource="http://purl.org/dc/dcmitype/StillImage" />
        <dc:title />
      </cc:Work>
    </rdf:RDF>
  </metadata>
  <defs
     id="defs819">
    <linearGradient
       id="linearGradient873"
       osb:paint="solid">
      <stop
         style="stop-color:#c5c4bc;stop-opacity:1;"
         offset="0"
         id="stop871" />
    </linearGradient>
  </defs>
  <sodipodi:namedview
     pagecolor="#ffffff"
     bordercolor="#666666"
     borderopacity="1"
     objecttolerance="10"
     gridtolerance="10"
     guidetolerance="10"
     inkscape:pageopacity="0"
     inkscape:pageshadow="2"
     inkscape:window-width="1850"
     inkscape:window-height="1016"
     id="namedview817"
     showgrid="false"
     inkscape:zoom="3.2766478"
     inkscape:cx="21.587474"
     inkscape:cy="78.708174"
     inkscape:window-x="1990"
     inkscape:window-y="27"
     inkscape:window-maximized="1"
     inkscape:current-layer="svg815"
     showguides="false" />
  <g
     inkscape:groupmode="layer"
     id="layer1"
     inkscape:label="Layer 1"
     transform="translate(-18.938324,-5.9483659)" />
  <g
     inkscape:groupmode="layer"
     id="layer2"
     inkscape:label="Layer 2"
     transform="translate(-18.938324,-5.9483659)" />
  <g
     id="g4675"
     transform="translate(-21.937862,-9.5059208)">
    <path
       sodipodi:nodetypes="caccccaaaaaaaaacccccsc"
       inkscape:connector-curvature="0"
       id="path831"
       d="m 69.620974,52.64257 c 0,0 -11.464827,0.06887 -17.165779,0.597289 -4.931146,0.45707 -8.163782,1.070475 -14.689865,2.221226 m 0,0 c -1.718591,0.48141 -13.231829,3.041023 -15.321934,6.689858 l 1.294812,31.291274 c 0,0 0.385366,24.308283 2.37382,36.254713 1.17468,7.05736 2.408885,14.31906 5.610849,20.71699 2.247588,4.49097 5.716244,8.3302 9.279482,11.86909 3.093234,3.07211 6.547149,5.86817 10.35849,7.98468 4.497254,2.49742 9.396365,4.48134 14.458726,5.39504 4.742941,0.85606 9.731787,0.94041 14.458727,1e-5 5.345632,-1.06348 10.459813,-3.40896 15.106132,-6.25826 5.567136,-3.41398 10.868276,-7.58729 14.890336,-12.73231 3.36818,-4.30859 5.47899,-9.53105 7.33726,-14.67453 3.11265,-8.61546 6.25825,-26.75943 6.25825,-26.75943 l 5.39505,-26.327833 4.31604,-21.580188 c 0.46107,-0.18076 -7.15624,-4.719461 -12.93727,-5.826651 m 0,0 c -8.171,-3.020212 -15.97301,-4.580151 -23.317449,-6.042453 -0.560598,-0.111617 -1.688234,-0.300698 -1.688234,-0.300698"
       style="fill:#c4c2ba;fill-opacity:1;stroke:#999999;stroke-width:1px;stroke-linecap:butt;stroke-linejoin:miter;stroke-opacity:1" />
    <path
       sodipodi:nodetypes="cacccaccccccccac"
       inkscape:connector-curvature="0"
       id="path833"
       d="m 44.429665,146.73589 c 0,0 2.659758,3.49305 4.287611,4.94586 1.756568,1.56768 5.826651,3.99233 5.826651,3.99233 l 37.117924,0.3237 c 6.489438,-3.63197 9.584439,-6.90286 12.300709,-12.9481 1.82193,-4.09929 3.54412,-10.57876 4.96344,-15.96934 1.55554,-5.90796 3.88443,-17.91156 3.88443,-17.91156 l 3.66864,-17.479953 3.45283,-19.42217 c 0,0 -0.95694,-1.317653 -4.10024,-2.373821 -24.119217,-7.804897 -48.333752,-15.174063 -76.393865,-4.963443 -5.327175,0.831578 -5.395047,2.158019 -5.395047,2.158019 l 0.863207,23.306604 1.942217,37.333724 c 0,0 0.697654,5.25913 1.510614,7.76886 0.401586,1.23976 0.688365,1.24109 1.645625,3.54633"
       style="fill:#fff578;fill-opacity:1;stroke:#a6a050;stroke-width:1px;stroke-linecap:butt;stroke-linejoin:miter;stroke-opacity:1" />
    <path
       sodipodi:nodetypes="caccc"
       inkscape:connector-curvature="0"
       id="path843"
       d="m 45.863324,135.57595 c 0,0 3.183707,-3.0099 4.418516,-4.80001 1.55264,-2.25088 3.668632,-7.33726 3.668632,-7.33726 l 4.531839,2.15802 c -1.801018,9.33969 -6.780695,10.73274 -12.618987,9.97925 z"
       style="fill:#f2f2dd;fill-opacity:1;stroke:#ccccba;stroke-width:1px;stroke-linecap:butt;stroke-linejoin:miter;stroke-opacity:1" />
    <path
       sodipodi:nodetypes="ccccscssscc"
       inkscape:connector-curvature="0"
       id="path835"
       d="M 77.599291,61.972167 C 68.498502,61.08449 38.154016,65.582151 40.354953,65.17217 L 37.76533,55.461085 v 0 c 0,0 -3.576697,-14.161681 -6.258255,-20.932783 -1.066063,-2.691875 -3.884433,-7.768868 -3.884433,-7.768868 0,0 3.791906,-1.771405 5.82665,-2.158019 3.392877,-0.644668 6.958718,-0.823055 10.358491,-0.215802 3.195435,0.570755 6.195953,2.03997 9.063679,3.560732 1.714257,0.909074 3.486732,2.114913 4.801592,3.290978 24.064499,11.143541 23.393931,21.011326 19.926237,30.734844 z"
       style="fill:#c42614;fill-opacity:1;stroke:#801a14;stroke-width:1px;stroke-linecap:butt;stroke-linejoin:miter;stroke-opacity:1" />
    <ellipse
       ry="19.530069"
       rx="19.242567"
       cy="151.38501"
       cx="74.056252"
       id="path827"
       style="opacity:1;fill:#c5c4bc;fill-opacity:1;fill-rule:nonzero;stroke:#999999;stroke-width:1.13385832;stroke-linejoin:round;stroke-miterlimit:4;stroke-dasharray:none;stroke-dashoffset:0;stroke-opacity:1" />
    <path
       sodipodi:nodetypes="ccccscccccc"
       inkscape:connector-curvature="0"
       id="path869"
       d="m 83.083726,144.15566 1.942217,6.47406 2.481722,9.60318 0.926415,4.10024 c -1.655597,1.98838 -5.005231,5.60483 -11.366136,6.39174 -6.766583,0.83709 -13.115307,-1.10598 -17.030326,-6.21522 l 5.997759,-6.92959 c -2.057362,-3.17541 0.194287,-4.62937 -0.431603,-7.48986 l 2.050118,-1.94221 -2.481722,-1.40272 4.29098,-3.52856"
       style="fill:#f5e28e;fill-opacity:1;stroke:#ccbb76;stroke-width:1px;stroke-linecap:butt;stroke-linejoin:miter;stroke-opacity:1" />
    <path
       sodipodi:nodetypes="ccacaaacsc"
       inkscape:connector-curvature="0"
       id="path837"
       d="M 71.430425,41.865566 57.673054,31.237323 c 0,0 0.110491,-8.31159 -0.05395,-12.462559 -0.114217,-2.883178 -0.647406,-8.632075 -0.647406,-8.632075 0,0 6.876255,1.526612 10.142689,2.805424 4.67351,1.829684 9.268693,4.026612 13.379717,6.905661 3.12729,2.190117 5.824623,4.965317 8.416273,7.768868 2.920809,3.159623 7.98467,10.142688 7.98467,10.142688 -5.017239,2.447477 -8.067214,12.241638 -13.443089,12.955712 -3.160511,0.419809 -8.223315,-6.193035 -12.021533,-8.855476 z"
       style="fill:#656abc;fill-opacity:1;stroke:#3c3b66;stroke-width:1px;stroke-linecap:butt;stroke-linejoin:miter;stroke-opacity:1" />
    <path
       sodipodi:nodetypes="caaaccscc"
       inkscape:connector-curvature="0"
       id="path839"
       d="m 82.615097,48.265571 c 0,0 8.942727,-7.966065 14.27995,-10.500241 4.160823,-1.975606 8.784403,-3.138914 13.379723,-3.45283 4.3352,-0.296148 8.80081,0.213833 12.94811,1.510613 1.16715,0.364946 3.23703,1.726415 3.23703,1.726415 l -6.25826,8.632076 c 0,0 -3.06154,-0.491027 -6.26909,-0.241983 -2.61059,0.202693 -6.7086,1.79403 -8.62124,2.615804 -6.920694,2.159881 -14.161916,3.197912 -22.696223,-0.289854 z"
       style="fill:#c52212;fill-opacity:1;stroke:#801a14;stroke-width:1px;stroke-linecap:butt;stroke-linejoin:miter;stroke-opacity:1" />
    <path
       sodipodi:nodetypes="acaaassaacacaacacaaaasa"
       inkscape:connector-curvature="0"
       id="path841"
       d="m 34.3125,145.01887 c -0.654454,-0.19338 -0.647406,-1.94222 -0.647406,-1.94222 0,0 1.326322,-0.31332 1.510614,-0.86321 0.174085,-0.51944 -0.21438,-1.17504 -0.647406,-1.51061 -0.747866,-0.57956 -2.065831,-1.02167 -2.805425,-0.4316 -0.789228,0.62967 -0.439995,2.03679 -0.215802,3.02122 0.386339,1.69641 1.186709,3.50281 2.589623,4.53184 1.365237,1.0014 3.272351,1.16192 4.963444,1.07901 2.340293,-0.11474 4.397045,-1.67517 6.689858,-2.15802 2.052203,-0.43218 6.258255,-0.6474 6.258255,-0.6474 0,0 -1.007956,-2.54248 -1.07901,-3.88444 -0.06941,-1.31083 0.647406,-3.88443 0.647406,-3.88443 0,0 2.29105,-1.28174 3.46592,-1.86592 2.687209,-1.33616 5.833911,-1.88278 8.187382,-3.74493 1.286377,-1.01782 3.021226,-3.88443 3.021226,-3.88443 0,0 -3.430195,-1.23417 -5.102948,-1.95531 -0.905451,-0.39035 -2.66592,-1.28172 -2.66592,-1.28172 0,0 -2.362022,4.33851 -4.100236,6.04245 -1.019818,0.99971 -2.301358,1.72396 -3.592335,2.33455 -1.292105,0.61113 -2.783474,0.71101 -4.087144,1.29706 -1.559363,0.70099 -3.047372,1.58805 -4.405426,2.62665 -1.630675,1.2471 -3.311906,2.73426 -4.429362,4.27901 -0.889306,1.22936 -2.100203,3.27241 -3.555308,2.84245 z"
       style="fill:#f2f2dd;fill-opacity:1;stroke:#ccccb9;stroke-width:1px;stroke-linecap:butt;stroke-linejoin:miter;stroke-opacity:1" />
    <path
       sodipodi:nodetypes="caaacc"
       inkscape:connector-curvature="0"
       id="path847"
       d="m 53.950472,123.43868 c 0,0 0.834044,-3.62888 1.905191,-5.08986 0.873171,-1.19095 2.139938,-2.13036 3.489856,-2.72912 1.067716,-0.4736 2.2866,-0.66224 3.45283,-0.59729 2.318437,0.12911 6.689859,1.94221 6.689859,1.94221 2.45937,10.50957 -2.737612,12.6482 -15.537736,6.47406 z"
       style="fill:#c52514;fill-opacity:1;stroke:#801a14;stroke-width:1px;stroke-linecap:butt;stroke-linejoin:miter;stroke-opacity:1" />
    <path
       sodipodi:nodetypes="caaaacaccaaacc"
       inkscape:connector-curvature="0"
       id="path845"
       d="m 91.715802,129.69693 c 0,0 -0.657836,2.28603 -1.510613,3.02123 -1.14634,0.98829 -2.802531,1.4211 -4.316038,1.41038 -1.672766,-0.0118 -3.21164,-0.96362 -4.747642,-1.62618 -2.836352,-1.22347 -5.563179,-2.70779 -8.200471,-4.31604 -0.749671,-0.45716 -2.158019,-1.51061 -2.158019,-1.51061 0,0 -1.473179,0.75963 -2.221226,1.11603 -0.762751,0.36341 -2.310614,1.04199 -2.310614,1.04199 l -7.768868,-3.23703 c 0,0 0.922156,-3.24321 1.942217,-4.53184 1.276931,-1.61313 3.045826,-2.92333 4.963444,-3.66863 1.28095,-0.49785 2.726848,-0.48157 4.100236,-0.43161 2.848372,0.10361 8.416273,1.51062 8.416273,1.51062 14.373742,-4.30529 12.584341,4.70024 13.811321,11.22169 z"
       style="fill:#c52514;fill-opacity:1;stroke:#801914;stroke-width:1px;stroke-linecap:butt;stroke-linejoin:miter;stroke-opacity:1" />
    <path
       sodipodi:nodetypes="caccaccaacacaacaccacaaacccc"
       inkscape:connector-curvature="0"
       id="path849"
       d="m 68.409198,102.55985 c 0,0 4.273582,-1.19335 6.434785,-1.69098 0.870561,-0.20045 2.628894,-0.52099 2.628894,-0.52099 l 0.967275,4.66367 c 0,0 0.626586,4.03614 0.543339,6.77383 -0.06865,2.25773 -1.07901,6.68986 -1.07901,6.68986 2.286559,0.60102 4.567956,1.21064 6.258255,2.80542 0,0 0.199346,2.03408 0,3.02123 -0.293544,1.45361 -0.832155,2.91724 -1.726415,4.10023 -0.277755,0.36743 -1.07901,0.86321 -1.07901,0.86321 0,0 2.991839,0.14891 4.316038,-0.4316 1.586633,-0.69556 3.884434,-3.45283 3.884434,-3.45283 0,0 1.254085,2.98556 2.158019,4.31603 1.030645,1.51697 2.013614,3.31009 3.668632,4.10024 1.299924,0.62062 4.316038,0.2158 4.316038,0.2158 0,0 -1.825871,-2.01632 -2.373821,-3.23703 -0.421773,-0.93961 -0.647406,-3.02122 -0.647406,-3.02122 l 4.531835,0.2158 c 0,0 -2.87905,-3.05024 -4.100231,-4.74764 -1.318469,-1.83263 -3.45283,-5.82665 -3.45283,-5.82665 0,0 2.017121,-3.23418 2.805424,-4.96345 0.981474,-2.15302 1.81254,-4.39121 2.373821,-6.68986 0.62018,-2.53986 1.262256,-5.16081 1.07901,-7.768863 -0.0367,-0.5224 -0.431604,-1.510614 -0.431604,-1.510614 L 77.688679,91.284198 c -4.601667,1.898877 -9.450581,4.663121 -14.458726,7.98467 0.277274,2.405172 2.076781,3.436182 5.179245,3.290982 z"
       style="fill:#c52514;fill-opacity:1;stroke:#801a14;stroke-width:1px;stroke-linecap:butt;stroke-linejoin:miter;stroke-opacity:1" />
    <path
       sodipodi:nodetypes="caccaaaaaac"
       inkscape:connector-curvature="0"
       id="path851"
       d="m 68.409198,102.55985 c 0,0 6.85076,1.23474 10.295284,1.04899 2.151035,-0.116 6.321461,-1.34268 6.321461,-1.34268 l 5.497526,-1.91604 c 0,0 3.160374,-0.931474 4.213559,-0.002 0.869756,0.76739 0.596123,2.30466 0.431604,3.45283 -0.122322,0.85368 -0.404302,1.77916 -1.028893,2.37382 -1.627193,1.54922 -4.122451,1.85459 -6.308371,2.37382 -2.797826,0.66457 -5.70273,0.87729 -8.578126,0.91716 -2.056299,0.0285 -4.114523,-0.19474 -6.150353,-0.48556 -1.836533,-0.26235 -5.448998,-1.13295 -5.448998,-1.13295"
       style="fill:#c52514;fill-opacity:1;stroke:#801a14;stroke-width:1px;stroke-linecap:butt;stroke-linejoin:miter;stroke-opacity:1" />
    <path
       sodipodi:nodetypes="cccaaasaaaaaaaaaaac"
       inkscape:connector-curvature="0"
       id="path853"
       d="m 85.241745,86.96816 c 0,0 -1.723617,-0.234142 -2.589622,-0.215802 -2.730774,0.333165 -7.739904,0.466379 -6.905661,2.718283 -0.006,0.885743 0.808294,1.252257 1.408135,1.660962 0.80191,0.546387 2.336449,0.0642 2.755308,0.939506 0.453348,0.947377 -1.342925,1.943704 -1.079009,2.960265 0.209571,0.807232 0.944793,1.632289 1.8921,1.637027 1.472821,0.0074 1.914134,-1.040582 2.958019,-1.028894 0.785567,0.0088 1.65495,0.266103 2.208136,0.823936 0.592864,0.597844 0.190037,1.868106 0.863207,2.373821 0.864607,0.649531 2.224723,0.596161 3.237029,0.215802 0.761838,-0.286249 0.974525,-1.414972 1.726415,-1.726415 0.731042,-0.302807 1.603715,-0.181797 2.373821,0 1.095824,0.258689 1.911011,1.698161 3.021226,1.510613 1.369495,-0.231348 1.596997,-2.525323 2.907901,-2.984201 1.54134,-0.539542 4.00758,2.002705 4.86097,0.61038 0.77996,-1.272519 -1.4369,-2.671766 -2.51333,-3.705657 -0.93083,-0.894038 -2.12091,-1.494362 -3.289388,-2.04245 -1.72369,-0.808517 -5.418983,-1.804959 -5.418983,-1.804959"
       style="fill:#f2f2dc;fill-opacity:1;stroke:#ccccba;stroke-width:1px;stroke-linecap:butt;stroke-linejoin:miter;stroke-opacity:1" />
    <path
       sodipodi:nodetypes="caacaaac"
       inkscape:connector-curvature="0"
       id="path857"
       d="m 101.42689,81.573113 c 0,0 2.79876,-3.282705 4.53184,-4.531839 1.43536,-1.034552 3.06765,-1.818656 4.74764,-2.373821 1.17906,-0.38963 3.66863,-0.647406 3.66863,-0.647406 0,0 -4.89622,-2.478887 -7.55307,-3.021226 -3.17241,-0.647579 -6.51141,-0.711431 -9.711081,-0.215802 -1.652853,0.256027 -3.295027,0.79485 -4.747641,1.623937 -1.408541,0.803932 -3.697059,3.162976 -3.697059,3.162976"
       style="fill:#c42514;fill-opacity:1;stroke:#801a14;stroke-width:1px;stroke-linecap:butt;stroke-linejoin:miter;stroke-opacity:1" />
    <path
       sodipodi:nodetypes="aaaccaaacccaacaaaa"
       inkscape:connector-curvature="0"
       id="path855"
       d="m 85.241745,86.96816 c -0.423064,-2.340243 -0.339682,-4.871831 0.431604,-7.121462 0.537086,-1.566532 1.745054,-2.828192 2.805425,-4.100236 0.377341,-0.452667 1.25554,-1.244694 1.25554,-1.244694 1.178461,0.404086 2.814962,1.418296 3.276299,2.539506 0,0 1.602219,-1.356629 2.589623,-1.510614 1.310556,-0.20438 2.838961,0.04693 3.884434,0.863208 1.01426,0.791909 1.35352,2.221251 1.72641,3.45283 0.16806,0.555066 0.21581,1.726415 0.21581,1.726415 l -2.158022,1.510613 2.373822,1.294812 c 0,0 -0.47708,1.624643 -1.07901,2.158019 -0.800366,0.70921 -1.955995,1.173058 -3.021227,1.079009 -0.577703,-0.05101 -1.510613,-0.863208 -1.510613,-0.863208 0,0 -1.498756,1.543344 -2.373821,2.158019 -1.132257,0.795335 -2.325756,1.608679 -3.668632,1.942217 -0.977379,0.242758 -2.176802,0.548769 -3.021227,0 -1.188089,-0.772107 -1.47435,-2.4901 -1.726415,-3.884434 z"
       style="fill:#f2f2dc;fill-opacity:1;stroke:#ccccba;stroke-width:1px;stroke-linecap:butt;stroke-linejoin:miter;stroke-opacity:1" />
    <path
       sodipodi:nodetypes="cccc"
       inkscape:connector-curvature="0"
       id="path861"
       d="m 60.944727,107.92329 1.653951,4.70758 2.625854,-1.08747 -1.562975,-4.28986"
       style="fill:#f2f2dd;fill-opacity:1;stroke:#ccccba;stroke-width:1px;stroke-linecap:butt;stroke-linejoin:miter;stroke-opacity:1" />
    <path
       sodipodi:nodetypes="caaaacccccac"
       inkscape:connector-curvature="0"
       id="path859"
       d="m 57.215927,98.60613 c 0,0 -2.238499,3.0168 -2.186446,4.76297 0.03644,1.22233 0.815706,2.42092 1.726415,3.23703 0.865467,0.77557 2.081049,1.17542 3.237029,1.29481 1.235202,0.12757 2.647516,0.0592 3.668632,-0.6474 0.327071,-0.22634 0.608134,-1.02665 0.608134,-1.02665 1.212177,0.87656 2.314928,1.31541 3.3842,1.62035 0.879902,-1.79835 0.867554,-3.48904 0.755307,-5.28739 l -1.856662,-0.29525 -1.81197,-0.40606 c 0,0 -0.711596,-1.989415 -1.510613,-2.589622 -0.861909,-0.647451 -3.136796,-0.786911 -3.136796,-0.786911"
       style="fill:#f2f2dd;fill-opacity:1;stroke:#ccccba;stroke-width:1px;stroke-linecap:butt;stroke-linejoin:miter;stroke-opacity:1" />
    <path
       sodipodi:nodetypes="ccaaaaaaaaaaccc"
       inkscape:connector-curvature="0"
       id="path863"
       d="m 58.698113,102.74868 -2.195044,-6.334559 c 0,0 -5.264997,-1.966776 -7.300239,-3.808137 -2.041691,-1.847196 -3.472629,-4.364261 -4.531839,-6.90566 -0.933543,-2.239882 -1.636595,-4.698096 -1.510614,-7.121462 0.133453,-2.567103 0.822556,-5.287531 2.373821,-7.337264 0.939104,-1.240866 2.354041,-2.307558 3.884434,-2.589623 1.596023,-0.294161 3.336164,0.278043 4.747642,1.079009 1.907686,1.082547 3.339192,2.926944 4.542684,4.760732 1.373162,2.092317 2.334768,4.483462 2.920994,6.916506 0.555666,2.30621 0.711121,4.732951 0.520991,7.097527 -0.124459,1.547845 -0.419529,3.125994 -1.079009,4.531839 -0.458247,0.976868 -1.942217,2.589623 -1.942217,2.589623 l 1.942217,5.826659 c -0.449975,1.4555 -1.315378,1.66471 -2.373821,1.29481 z"
       style="fill:#f2f2dd;fill-opacity:1;stroke:#ccccba;stroke-width:1.00157475;stroke-linecap:butt;stroke-linejoin:miter;stroke-miterlimit:4;stroke-dasharray:none;stroke-opacity:1" />
    <path
       sodipodi:nodetypes="ccaacaccc"
       inkscape:connector-curvature="0"
       id="path867"
       d="m 58.698113,150.41392 -0.215802,4.20813 c 0,0 2.235471,1.49361 3.452831,2.05012 0.82753,0.3783 1.687201,0.74678 2.589622,0.86321 1.644366,0.21216 4.963444,-0.32371 4.963444,-0.32371 0,0 -0.04282,-2.01188 -0.431604,-2.91332 -0.598422,-1.38749 -2.805425,-3.56073 -2.805425,-3.56073 l -0.647405,-0.64741 z"
       style="fill:#baa21e;fill-opacity:1;stroke:#99841c;stroke-width:1px;stroke-linecap:butt;stroke-linejoin:miter;stroke-opacity:1" />
    <path
       sodipodi:nodetypes="ccaaaacc"
       inkscape:connector-curvature="0"
       id="path873"
       d="m 82.423231,141.7895 2.063208,-4.6474 c 0,0 -3.450033,0.36813 -5.179246,0.3237 -1.266621,-0.0325 -2.542402,-0.14471 -3.776533,-0.4316 -1.041602,-0.24214 -2.000569,-0.75991 -3.021226,-1.07901 -0.924321,-0.28898 -1.837137,-0.7725 -2.805425,-0.75531 -0.489127,0.009 -1.402712,0.43161 -1.402712,0.43161 l 1.923704,5.23703"
       style="fill:#f4e18d;fill-opacity:1;stroke:#ccba76;stroke-width:1px;stroke-linecap:butt;stroke-linejoin:miter;stroke-opacity:1" />
    <path
       sodipodi:nodetypes="caacacscscc"
       inkscape:connector-curvature="0"
       id="path871"
       d="m 83.083726,144.15566 c 0,0 0.920757,-0.5956 1.07901,-1.07901 0.147183,-0.44959 0.06287,-1.02043 -0.215802,-1.40271 -0.284251,-0.38994 -1.294811,-0.64741 -1.294811,-0.64741 0,0 -5.19683,0.21048 -7.787942,0.0507 -1.665332,-0.10271 -4.963444,-0.6474 -4.963444,-0.6474 0,0 -1.300643,-0.18938 -1.4921,1.02888 -0.205565,1.30804 1.168959,1.79617 1.168959,1.79617 0,0 0.86353,0.2547 1.510052,0.30408 3.999127,0.30542 11.996078,0.59672 11.996078,0.59672 z"
       style="fill:#baa21e;fill-opacity:1;stroke:#99841b;stroke-width:1px;stroke-linecap:butt;stroke-linejoin:miter;stroke-opacity:1" />
    <path
       sodipodi:nodetypes="cccacacccc"
       inkscape:connector-curvature="0"
       id="path4645"
       d="m 37.76533,55.461085 c 10.465953,-1.563256 20.931906,-2.398665 31.397859,-2.742218 0.270538,1.25335 0.605473,2.552154 1.488286,4.237682 0.66683,1.283094 1.440431,2.003194 2.40337,2.746709 1.340128,1.034754 4.544446,2.268909 4.544446,2.268909 v 0 l -16.408705,0.630396 -11.749813,1.22076 -9.08582,1.348847 z"
       style="fill:#656abc;fill-opacity:1;stroke:#3c3a99;stroke-width:1px;stroke-linecap:butt;stroke-linejoin:miter;stroke-opacity:1" />
    <path
       sodipodi:nodetypes="caaacaaacaaac"
       inkscape:connector-curvature="0"
       id="path865"
       d="m 71.430425,41.865566 c 0,0 -2.280828,5.502878 -2.373821,8.416274 -0.06572,2.058826 0.393928,4.190023 1.294811,6.042452 0.690907,1.42067 1.784363,2.673492 3.032071,3.642451 1.229066,0.954481 2.974753,1.780502 4.215805,2.005424 5.045772,0.393219 9.247712,-0.648077 13.31651,-2.626648 2.876501,-1.398782 4.772421,-4.2651 7.274057,-6.258255 1.32779,-1.057905 2.652312,-2.134819 4.100232,-3.021226 0.96029,-0.587881 3.02123,-1.510613 3.02123,-1.510613 0,0 -4.54518,1.4856 -6.90566,1.726415 -3.437981,0.350742 -6.966386,0.228976 -10.35849,-0.431604 -3.148971,-0.613232 -6.17786,-1.835559 -9.063679,-3.237028 -2.674994,-1.299084 -7.553066,-4.747642 -7.553066,-4.747642 z"
       style="fill:#fff578;fill-opacity:1;stroke:#a69f4f;stroke-width:1px;stroke-linecap:butt;stroke-linejoin:miter;stroke-opacity:1" />
    <path
       sodipodi:nodetypes="ccssccsc"
       inkscape:connector-curvature="0"
       id="path4643"
       d="m 119.55424,46.289505 c 4.78278,0.858364 10.217,3.112842 9.92689,3.344929 0,0 -3.43088,4.081031 -4.96344,6.258255 -1.80387,2.562659 -3.4919,5.217768 -4.96344,7.984669 -1.07346,2.018397 -2.80543,6.258255 -2.80543,6.258255 -11.40202,-2.987269 -26.765556,-7.628623 -42.062855,-8.055545 5.754593,0.06471 15.991702,-0.02678 24.521344,-10.121824 5.428911,-6.425248 15.445861,-6.712317 20.346931,-5.668739 z"
       style="fill:#656abc;fill-opacity:1;stroke:#3c3b66;stroke-width:1.00157475;stroke-linecap:butt;stroke-linejoin:miter;stroke-miterlimit:4;stroke-dasharray:none;stroke-opacity:1" />
    <path
       sodipodi:nodetypes="caccccaaac"
       inkscape:connector-curvature="0"
       id="path4647"
       d="m 82.706478,62.144778 c -0.77332,0.02328 4.725585,-1.62657 6.926544,-2.788761 2.276667,-1.202168 4.088178,-2.481478 6.422717,-4.290043 8.099911,1.204423 16.345331,3.658777 24.588361,6.437564 l -2.38299,5.066494 -1.51229,3.565581 c 0,0 -6.72086,-1.877182 -10.08493,-2.802606 -2.93212,-0.806598 -5.83596,-1.72844 -8.802639,-2.396826 -3.37507,-0.760396 -6.815372,-1.195764 -10.216196,-1.831139 -1.648499,-0.307989 -4.938577,-0.960264 -4.938577,-0.960264 z"
       style="fill:#656abc;fill-opacity:1;stroke:#3c3b66;stroke-width:1px;stroke-linecap:butt;stroke-linejoin:miter;stroke-opacity:1" />
    <path
       style="fill:none;stroke:#999999;stroke-width:1px;stroke-linecap:butt;stroke-linejoin:miter;stroke-opacity:1"
       d="m 59.471138,164.10503 c 1.503666,1.56647 2.963719,3.26076 4.897061,4.29819 1.709081,1.2661 4.331019,2.01966 6.662882,2.34684 2.827801,0.39675 5.796896,0.2411 8.551151,-0.51253 2.183807,-0.59753 4.225378,-1.75148 6.042452,-3.10215 1.362688,-1.01292 3.533756,-3.66863 3.533756,-3.66863"
       id="path2341"
       inkscape:connector-curvature="0"
       sodipodi:nodetypes="ccaaac" />
    <g
       aria-label="RÖ"
       transform="rotate(8.9222022,1.0542369,0.90164194)"
       style="font-style:normal;font-variant:normal;font-weight:normal;font-stretch:normal;font-size:19.61244965px;line-height:1.25;font-family:'Microsoft Sans Serif';-inkscape-font-specification:'Microsoft Sans Serif, Normal';font-variant-ligatures:normal;font-variant-caps:normal;font-variant-numeric:normal;font-feature-settings:normal;text-align:start;letter-spacing:0px;word-spacing:0px;writing-mode:lr-tb;text-anchor:start;fill:#999999;fill-opacity:1;stroke:#c42212;stroke-width:0.60000002;stroke-miterlimit:4;stroke-dasharray:none;stroke-opacity:1"
       id="text6048">
      <path
         d="m 67.048138,28.554329 c 1.772453,0.755026 3.025905,1.86224 3.760263,3.321824 0.734389,1.459522 0.778055,2.994177 0.130998,4.603965 -0.647069,1.609784 -1.731325,2.66397 -3.252785,3.162552 -1.521458,0.498581 -3.168413,0.370359 -4.940865,-0.384661 -1.778206,-0.757478 -3.037383,-1.867205 -3.777527,-3.329177 -0.738253,-1.466681 -0.784797,-3.002563 -0.139631,-4.607643 0.647057,-1.60979 1.734199,-2.662747 3.261412,-3.158873 1.527216,-0.496131 3.179926,-0.365457 4.958132,0.392015 z m -3.848548,9.52428 c 1.266034,0.539307 2.884211,0.599771 3.985022,0.208679 1.106566,-0.388643 1.994761,-1.143712 2.524518,-2.461668 0.529757,-1.317955 0.362752,-2.597167 -0.147758,-3.674648 -0.510507,-1.077483 -1.718305,-1.885294 -2.967076,-2.417245 -1.271793,-0.541754 -2.497318,-0.832726 -3.609641,-0.446544 -1.106565,0.388643 -2.322913,1.140622 -2.85267,2.458578 -0.527862,1.313248 -0.439479,2.770311 0.07489,3.854951 0.516264,1.079935 1.738181,1.943491 2.992708,2.477894 z m 10.510797,-5.531207 -1.588301,-0.676584 0.58179,-1.447394 1.588303,0.676583 z M 60.213233,27.460098 58.6163,26.779839 l 0.58179,-1.447394 1.596937,0.680261 z"
         style="fill:#999999;fill-opacity:1;stroke:#c42212;stroke-width:0.1;stroke-miterlimit:4;stroke-dasharray:none;stroke-opacity:1"
         id="path6070"
         inkscape:connector-curvature="0"
         sodipodi:nodetypes="cssssccsccccscscsccccccccccccc" />
      <g
         aria-label="R"
         transform="matrix(0.78205329,-0.31730885,0.44547563,1.0979388,0,0)"
         style="font-style:normal;font-variant:normal;font-weight:normal;font-stretch:normal;font-size:26.6146183px;line-height:1.25;font-family:'Microsoft Sans Serif';-inkscape-font-specification:'Microsoft Sans Serif, Normal';font-variant-ligatures:normal;font-variant-caps:normal;font-variant-numeric:normal;font-feature-settings:normal;text-align:start;letter-spacing:0px;word-spacing:0px;writing-mode:lr-tb;text-anchor:start;fill:#999999;fill-opacity:1;stroke:#c42212;stroke-width:0.60000002;stroke-linecap:butt;stroke-linejoin:round;stroke-miterlimit:4;stroke-dasharray:none;stroke-opacity:1;paint-order:fill markers stroke"
         id="text6075">
        <path
           d="m 47.649877,50.909564 -2.982919,-0.04229 -2.115394,-5.134849 c -0.377894,-0.910566 -0.982765,-1.658976 -1.814613,-2.24523 -0.831849,-0.586253 -1.778616,-0.873383 -2.838663,-0.901933 l -4.618062,-0.124379 c -0.05046,2.664926 0.370826,5.306868 0.269447,8.126879 l -2.620765,0.115659 C 30.576879,44.492746 30.674091,38.02625 29.710261,31.515277 l 9.218641,0.130693 c 1.609829,0.02282 2.930467,0.185161 3.961916,0.487013 1.031446,0.301853 1.88316,0.918851 2.55514,1.850995 0.67198,0.932144 1.025566,1.977276 1.060759,3.135399 0.04022,1.323569 -0.420051,2.393606 -1.149171,3.299908 -0.603712,0.512011 -0.582412,0.802735 -2.189427,1.729877 0.702829,0.715289 1.061002,0.800531 2.235349,3.519246 z M 33.123137,40.17351 38.88035,40.327462 c 1.713128,0.04581 2.946969,-0.206283 3.698923,-0.691746 0.761423,-0.48533 1.123613,-1.337533 1.086568,-2.55661 -0.06615,-2.176922 -1.585952,-3.28646 -4.559401,-3.328615 l -6.576627,-0.09324 c 0.333841,2.413171 0.382667,4.471312 0.593324,6.516259 z"
           style="fill:#999999;fill-opacity:1;stroke:#c42212;stroke-width:1.20000005;stroke-linecap:butt;stroke-linejoin:round;stroke-miterlimit:4;stroke-dasharray:none;stroke-opacity:1;paint-order:fill markers stroke"
           id="path6082"
           inkscape:connector-curvature="0"
           sodipodi:nodetypes="cccssccccsssscccccscsscc" />
      </g>
    </g>
    <g
       aria-label="SE"
       transform="rotate(35.006913)"
       style="font-style:normal;font-variant:normal;font-weight:normal;font-stretch:normal;font-size:22.48043442px;line-height:1.25;font-family:'Microsoft Sans Serif';-inkscape-font-specification:'Microsoft Sans Serif, Normal';font-variant-ligatures:normal;font-variant-caps:normal;font-variant-numeric:normal;font-feature-settings:normal;text-align:start;letter-spacing:0px;word-spacing:0px;writing-mode:lr-tb;text-anchor:start;fill:#999999;fill-opacity:1;stroke:#5b58a3;stroke-width:0.80000001;stroke-miterlimit:4;stroke-dasharray:none;stroke-opacity:1"
       id="text6052">
      <path
         d="m 70.23775,-9.6941526 q -3.453967,-0.073056 -5.202567,-1.6818914 -1.737458,-1.608599 -1.877968,-4.076774 l 2.083523,0.04407 q 0.205777,1.858908 1.572556,2.781171 1.377686,0.911185 3.29408,0.951719 1.816119,0.03841 2.903371,-0.696242 1.098394,-0.734422 1.071293,-2.035446 -0.02852,-1.368904 -1.189087,-2.015407 -1.16057,-0.646502 -3.980802,-1.305493 -2.809327,-0.670068 -4.057316,-1.770751 -1.236848,-1.100446 -1.274083,-2.887941 -0.04195,-2.013759 1.513326,-3.270005 1.566416,-1.25601 4.195888,-1.200393 2.763174,0.05844 4.483834,1.39529 1.720661,1.336846 1.870427,3.714751 l -2.105806,-0.04454 q -0.385801,-3.016161 -4.118314,-3.09511 -1.804977,-0.03818 -2.782225,0.630958 -0.977247,0.669134 -0.953445,1.811772 0.02168,1.040819 0.823592,1.577962 0.813053,0.537378 2.995844,1.069802 2.193933,0.53266 3.485141,1.034919 1.291209,0.502258 2.225814,1.528462 0.934368,1.014892 0.969482,2.700566 0.04454,2.138205 -1.608417,3.516777 -1.641817,1.3788066 -4.338141,1.3217744 z"
         style="fill:#999999;fill-opacity:1;stroke:#6669bd;stroke-width:0.80000001;stroke-miterlimit:4;stroke-dasharray:none;stroke-opacity:1"
         id="path6058"
         inkscape:connector-curvature="0" />
      <path
         d="M 91.217174,-9.9175444 H 79.21956 V -26.009496 h 11.624404 v 1.909959 h -9.49491 v 4.917595 h 8.880211 v 1.909959 h -8.880211 v 5.44448 h 9.86812 z"
         style="fill:#999999;fill-opacity:1;stroke:#6669bd;stroke-width:0.80000001;stroke-miterlimit:4;stroke-dasharray:none;stroke-opacity:1"
         id="path6060"
         inkscape:connector-curvature="0" />
    </g>
    <g
       aria-label="NA"
       style="font-style:normal;font-variant:normal;font-weight:normal;font-stretch:normal;font-size:14.41900349px;line-height:1.25;font-family:'Microsoft Sans Serif';-inkscape-font-specification:'Microsoft Sans Serif, Normal';font-variant-ligatures:normal;font-variant-caps:normal;font-variant-numeric:normal;font-feature-settings:normal;text-align:start;letter-spacing:0px;word-spacing:0px;writing-mode:lr-tb;text-anchor:start;fill:#999999;fill-opacity:1;stroke:#6966bd;stroke-width:0;stroke-miterlimit:4;stroke-dasharray:none;stroke-opacity:1"
       id="text6056">
      <path
         d="m 109.78382,56.230193 -0.95974,-0.358109 1.69585,-7.272119 -6.71058,6.414386 -1.13681,-0.231349 7.66103,-7.408029 1.4391,0.464753 -1.42609,6.516815 6.38688,-6.144635 1.14299,0.232606 z"
         style="fill:#999999;fill-opacity:1;stroke:#6966bd;stroke-width:0;stroke-miterlimit:4;stroke-dasharray:none;stroke-opacity:1"
         id="path6063"
         inkscape:connector-curvature="0"
         sodipodi:nodetypes="ccccccccccc" />
      <path
         d="m 119.15384,54.867397 1.25309,-4.994342 -3.74065,3.960306 z m -0.0661,4.377896 -0.92831,-0.315787 0.70358,-2.933967 -3.03048,-1.25972 -2.45665,2.596153 -1.0118,-0.420591 8.22556,-8.470952 1.03155,0.428796 z"
         style="fill:#999999;fill-opacity:1;stroke:#6966bd;stroke-width:0;stroke-miterlimit:4;stroke-dasharray:none;stroke-opacity:1"
         id="path6065"
         inkscape:connector-curvature="0"
         sodipodi:nodetypes="ccccccccccccc" />
    </g>
    <ellipse
       style="opacity:1;fill:#f2f2dc;fill-opacity:1;fill-rule:nonzero;stroke:#ccccba;stroke-width:1;stroke-linecap:butt;stroke-linejoin:round;stroke-miterlimit:4;stroke-dasharray:none;stroke-dashoffset:0;stroke-opacity:1;paint-order:fill markers stroke"
       id="path6085"
       cx="116.41574"
       cy="74.66729"
       rx="1.4878011"
       ry="1.4115036" />
    <ellipse
       ry="1.4115036"
       rx="1.4878011"
       cy="72.073174"
       cx="93.984276"
       id="ellipse6093"
       style="opacity:1;fill:#f2f2dc;fill-opacity:1;fill-rule:nonzero;stroke:#ccccba;stroke-width:1;stroke-linecap:butt;stroke-linejoin:round;stroke-miterlimit:4;stroke-dasharray:none;stroke-dashoffset:0;stroke-opacity:1;paint-order:fill markers stroke" />
    <ellipse
       style="opacity:1;fill:#f2f2dc;fill-opacity:1;fill-rule:nonzero;stroke:#ccccba;stroke-width:1;stroke-linecap:butt;stroke-linejoin:round;stroke-miterlimit:4;stroke-dasharray:none;stroke-dashoffset:0;stroke-opacity:1;paint-order:fill markers stroke"
       id="ellipse6095"
       cx="98.867317"
       cy="70.318329"
       rx="1.4878011"
       ry="1.4115036" />
    <ellipse
       style="opacity:1;fill:#f2f2dc;fill-opacity:1;fill-rule:nonzero;stroke:#ccccba;stroke-width:1;stroke-linecap:butt;stroke-linejoin:round;stroke-miterlimit:4;stroke-dasharray:none;stroke-dashoffset:0;stroke-opacity:1;paint-order:fill markers stroke"
       id="ellipse6097"
       cx="104.36074"
       cy="70.165741"
       rx="1.4878011"
       ry="1.4115036" />
    <ellipse
       style="opacity:1;fill:#f2f2dc;fill-opacity:1;fill-rule:nonzero;stroke:#ccccba;stroke-width:1;stroke-linecap:butt;stroke-linejoin:round;stroke-miterlimit:4;stroke-dasharray:none;stroke-dashoffset:0;stroke-opacity:1;paint-order:fill markers stroke"
       id="ellipse6099"
       cx="68.303848"
       cy="107.57259"
       rx="1.4878011"
       ry="1.4115036" />
    <ellipse
       style="opacity:1;fill:#f2f2dc;fill-opacity:1;fill-rule:nonzero;stroke:#ccccba;stroke-width:1;stroke-linecap:butt;stroke-linejoin:round;stroke-miterlimit:4;stroke-dasharray:none;stroke-dashoffset:0;stroke-opacity:1;paint-order:fill markers stroke"
       id="ellipse6101"
       cx="69.059158"
       cy="105.30666"
       rx="1.4878011"
       ry="1.4115036" />
    <ellipse
       ry="1.4115036"
       rx="1.4878011"
       cy="102.93285"
       cx="69.274963"
       id="ellipse6103"
       style="opacity:1;fill:#f2f2dc;fill-opacity:1;fill-rule:nonzero;stroke:#ccccba;stroke-width:1;stroke-linecap:butt;stroke-linejoin:round;stroke-miterlimit:4;stroke-dasharray:none;stroke-dashoffset:0;stroke-opacity:1;paint-order:fill markers stroke" />
    <ellipse
       style="opacity:1;fill:#f2f2dc;fill-opacity:1;fill-rule:nonzero;stroke:#ccccba;stroke-width:1;stroke-linecap:butt;stroke-linejoin:round;stroke-miterlimit:4;stroke-dasharray:none;stroke-dashoffset:0;stroke-opacity:1;paint-order:fill markers stroke"
       id="ellipse6105"
       cx="82.654678"
       cy="100.12743"
       rx="1.4878011"
       ry="1.4115036" />
    <ellipse
       style="opacity:1;fill:#f2f2dc;fill-opacity:1;fill-rule:nonzero;stroke:#ccccba;stroke-width:1;stroke-linecap:butt;stroke-linejoin:round;stroke-miterlimit:4;stroke-dasharray:none;stroke-dashoffset:0;stroke-opacity:1;paint-order:fill markers stroke"
       id="ellipse6107"
       cx="82.438881"
       cy="112.53604"
       rx="1.4878011"
       ry="1.4115036" />
    <ellipse
       ry="1.4115036"
       rx="1.4878011"
       cy="129.69229"
       cx="79.849258"
       id="ellipse6111"
       style="opacity:1;fill:#f2f2dc;fill-opacity:1;fill-rule:nonzero;stroke:#ccccba;stroke-width:1;stroke-linecap:butt;stroke-linejoin:round;stroke-miterlimit:4;stroke-dasharray:none;stroke-dashoffset:0;stroke-opacity:1;paint-order:fill markers stroke" />
    <ellipse
       ry="1.4115036"
       rx="1.4878011"
       cy="134.33203"
       cx="100.56624"
       id="ellipse6113"
       style="opacity:1;fill:#f2f2dc;fill-opacity:1;fill-rule:nonzero;stroke:#ccccba;stroke-width:1;stroke-linecap:butt;stroke-linejoin:round;stroke-miterlimit:4;stroke-dasharray:none;stroke-dashoffset:0;stroke-opacity:1;paint-order:fill markers stroke" />
    <ellipse
       ry="1.4115036"
       rx="1.4878011"
       cy="128.39748"
       cx="102.50845"
       id="ellipse6115"
       style="opacity:1;fill:#f2f2dc;fill-opacity:1;fill-rule:nonzero;stroke:#ccccba;stroke-width:1;stroke-linecap:butt;stroke-linejoin:round;stroke-miterlimit:4;stroke-dasharray:none;stroke-dashoffset:0;stroke-opacity:1;paint-order:fill markers stroke" />
    <g
       id="g4605"
       transform="matrix(1.0708262,0,0,1.0707415,-2.7477943,-5.718643)"
       style="stroke:#999999;stroke-width:0.52945244;stroke-linecap:round;stroke-linejoin:round;stroke-miterlimit:4;stroke-dasharray:none;stroke-opacity:1">
      <path
         id="path4601"
         style="fill:none;stroke:#ccccb9;stroke-width:0.52945244;stroke-linecap:round;stroke-linejoin:round;stroke-miterlimit:4;stroke-dasharray:none;stroke-opacity:1"
         d="m 49.565931,89.482834 3.776533,-4.58579 4.316038,0.863213 m -9.603189,-7.121462 5.125294,-1.942217 m 0.161857,8.200466 1.672464,4.073261 m -6.959615,-10.33151 c 0,0 -0.635883,2.321995 -0.593456,3.506784 0.02716,0.758451 0.15719,1.556362 0.539505,2.21197 0.410172,0.703378 1.780366,1.672464 1.780366,1.672464 0,0 -2.406927,-0.759141 -3.183078,-1.672464 -0.699698,-0.823358 -0.965611,-1.996307 -1.025059,-3.075177 -0.06123,-1.11115 0.26291,-2.241181 0.701356,-3.264004 0.478039,-1.115188 1.069104,-2.293754 2.050117,-3.007741 0.73501,-0.534945 1.70797,-0.740729 2.616599,-0.768796 0.784727,-0.02424 1.580036,0.202079 2.296463,0.523223 1.110815,0.497931 2.235073,1.151526 2.974838,2.118326 0.59434,0.776742 0.983933,1.774479 1.017923,2.751959 0.03769,1.083855 -0.914016,3.122483 -0.914016,3.122483 0,0 0.08401,-1.809879 -0.168988,-2.662365 -0.229104,-0.771982 -0.651232,-1.502838 -1.18691,-2.104068 -0.48815,-0.547887 -1.780366,-1.294811 -1.780366,-1.294811 0,0 0.964817,2.093528 1.213886,3.210053 0.227778,1.021079 0.542167,2.126702 0.242782,3.129127 -0.143084,0.479082 -0.512791,0.892836 -0.917159,1.18691 -0.301329,0.21914 -0.67954,0.369249 -1.052033,0.377653 -0.639771,0.01443 -1.318261,-0.188065 -1.83432,-0.56648 -0.714048,-0.523595 -1.093488,-1.403954 -1.510614,-2.184993 -0.541968,-1.014796 -1.267836,-3.210053 -1.267836,-3.210053"
         inkscape:connector-curvature="0"
         sodipodi:nodetypes="ccccccccaacaaaaaaaacaacaaaaaac" />
    </g>
  </g>
  <g
     aria-label="RÖHLINGER"
     transform="matrix(0.05408214,1.004011,-0.99310668,0.05380659,-18.966838,-4.9148115)"
     style="font-style:normal;font-variant:normal;font-weight:normal;font-stretch:normal;font-size:10.65994167px;line-height:1.25;font-family:sans-serif;-inkscape-font-specification:'sans-serif, Normal';font-variant-ligatures:normal;font-variant-caps:normal;font-variant-numeric:normal;text-align:start;letter-spacing:0px;word-spacing:0px;writing-mode:lr-tb;text-anchor:start;fill:#999999;fill-opacity:1;stroke:none;stroke-width:0.30000001;stroke-miterlimit:4;stroke-dasharray:none;stroke-opacity:1"
     id="text4679">
    <path
       d="m 67.480696,-17.421246 h -1.093085 l -0.718312,-2.035219 q -0.192591,-0.541337 -0.640235,-0.884878 -0.447645,-0.343541 -1.030623,-0.343541 h -1.868654 v 3.263638 h -1.009802 v -7.63077 h 3.378152 q 0.884878,0 1.447035,0.17177 0.562158,0.171771 0.916109,0.723518 0.353952,0.551747 0.353952,1.244034 0,0.791185 -0.458055,1.322112 -0.458054,0.530927 -1.254444,0.692287 v 0.02082 q 0.79639,0.255053 1.212803,1.379369 z m -5.350909,-4.169336 h 2.253836 q 0.942135,0 1.363753,-0.296694 0.426824,-0.296695 0.426824,-1.025418 0,-1.301291 -1.634422,-1.301291 h -2.409991 z"
       style="font-style:normal;font-variant:normal;font-weight:normal;font-stretch:normal;font-size:10.66017628px;font-family:'Microsoft Sans Serif';-inkscape-font-specification:'Microsoft Sans Serif, Normal';font-variant-ligatures:normal;font-variant-caps:normal;font-variant-numeric:normal;font-feature-settings:normal;text-align:start;writing-mode:lr-tb;text-anchor:start;fill:#999999;fill-opacity:1;stroke:none;stroke-width:0.30000001;stroke-miterlimit:4;stroke-dasharray:none;stroke-opacity:1"
       id="path4770"
       inkscape:connector-curvature="0" />
    <path
       d="m 72.128907,-25.182145 c 1.068794,0 1.943262,0.360891 2.623403,1.082674 0.680141,0.721783 1.020212,1.676063 1.020212,2.86284 0,1.186777 -0.340071,2.141057 -1.020212,2.86284 -0.680141,0.721783 -1.554609,1.082675 -2.623403,1.082675 -1.072263,0 -1.950201,-0.360892 -2.633813,-1.082675 -0.683611,-0.725253 -1.025417,-1.679533 -1.025417,-2.86284 0,-1.186777 0.341806,-2.141057 1.025417,-2.86284 0.683612,-0.721783 1.56155,-1.082674 2.633813,-1.082674 z m -0.01041,7.026971 c 0.763424,0 1.388044,-0.270668 1.873859,-0.812005 0.489285,-0.541337 0.733928,-1.297821 0.733928,-2.269452 0,-0.971631 -0.242908,-1.728115 -0.728723,-2.269452 -0.485815,-0.541337 -1.10523,-0.812005 -1.858243,-0.812005 -0.766895,0 -1.39672,0.270668 -1.889475,0.812005 -0.489285,0.541337 -0.733928,1.297821 -0.733928,2.269452 0,0.968161 0.244643,1.724645 0.733928,2.269452 0.489285,0.541337 1.11217,0.812005 1.868654,0.812005 z m 3.416009,-7.174677 h -0.957751 v -1.067059 h 0.957751 z m -5.914714,0.07421 H 68.656837 V -26.3227 h 0.962955 z"
       style="font-style:normal;font-variant:normal;font-weight:normal;font-stretch:normal;font-size:10.66017628px;font-family:'Microsoft Sans Serif';-inkscape-font-specification:'Microsoft Sans Serif, Normal';font-variant-ligatures:normal;font-variant-caps:normal;font-variant-numeric:normal;font-feature-settings:normal;text-align:start;writing-mode:lr-tb;text-anchor:start;fill:#999999;fill-opacity:1;stroke:none;stroke-width:0.30000001;stroke-miterlimit:4;stroke-dasharray:none;stroke-opacity:1"
       id="path4772"
       inkscape:connector-curvature="0"
       sodipodi:nodetypes="ssssscsssscssscscscccccccccc" />
    <path
       d="m 83.101393,-17.421246 h -1.015007 v -3.591563 h -3.966335 v 3.591563 h -1.009802 v -7.63077 h 1.009802 v 3.133509 h 3.966335 v -3.133509 h 1.015007 z"
       style="font-style:normal;font-variant:normal;font-weight:normal;font-stretch:normal;font-size:10.66017628px;font-family:'Microsoft Sans Serif';-inkscape-font-specification:'Microsoft Sans Serif, Normal';font-variant-ligatures:normal;font-variant-caps:normal;font-variant-numeric:normal;font-feature-settings:normal;text-align:start;writing-mode:lr-tb;text-anchor:start;fill:#999999;fill-opacity:1;stroke:none;stroke-width:0.30000001;stroke-miterlimit:4;stroke-dasharray:none;stroke-opacity:1"
       id="path4774"
       inkscape:connector-curvature="0" />
    <path
       d="m 89.534976,-17.421246 h -4.721084 v -7.63077 h 1.009802 v 6.725072 h 3.711282 z"
       style="font-style:normal;font-variant:normal;font-weight:normal;font-stretch:normal;font-size:10.66017628px;font-family:'Microsoft Sans Serif';-inkscape-font-specification:'Microsoft Sans Serif, Normal';font-variant-ligatures:normal;font-variant-caps:normal;font-variant-numeric:normal;font-feature-settings:normal;text-align:start;writing-mode:lr-tb;text-anchor:start;fill:#999999;fill-opacity:1;stroke:none;stroke-width:0.30000001;stroke-miterlimit:4;stroke-dasharray:none;stroke-opacity:1"
       id="path4776"
       inkscape:connector-curvature="0" />
    <path
       d="m 91.887711,-17.421246 h -1.015008 v -7.63077 h 1.015008 z"
       style="font-style:normal;font-variant:normal;font-weight:normal;font-stretch:normal;font-size:10.66017628px;font-family:'Microsoft Sans Serif';-inkscape-font-specification:'Microsoft Sans Serif, Normal';font-variant-ligatures:normal;font-variant-caps:normal;font-variant-numeric:normal;font-feature-settings:normal;text-align:start;writing-mode:lr-tb;text-anchor:start;fill:#999999;fill-opacity:1;stroke:none;stroke-width:0.30000001;stroke-miterlimit:4;stroke-dasharray:none;stroke-opacity:1"
       id="path4778"
       inkscape:connector-curvature="0" />
    <path
       d="m 99.695457,-17.421246 h -1.035828 l -3.997566,-6.022375 v 6.022375 h -0.95775 v -7.63077 h 1.030622 l 3.997567,6.022375 v -6.022375 h 0.962955 z"
       style="font-style:normal;font-variant:normal;font-weight:normal;font-stretch:normal;font-size:10.66017628px;font-family:'Microsoft Sans Serif';-inkscape-font-specification:'Microsoft Sans Serif, Normal';font-variant-ligatures:normal;font-variant-caps:normal;font-variant-numeric:normal;font-feature-settings:normal;text-align:start;writing-mode:lr-tb;text-anchor:start;fill:#999999;fill-opacity:1;stroke:none;stroke-width:0.30000001;stroke-miterlimit:4;stroke-dasharray:none;stroke-opacity:1"
       id="path4780"
       inkscape:connector-curvature="0" />
    <path
       d="m 104.74447,-17.291116 q -1.64483,0 -2.67025,-1.077469 -1.02021,-1.077469 -1.02021,-2.868046 0,-1.795782 1.0098,-2.868045 1.0098,-1.077469 2.64943,-1.077469 1.37936,0 2.29027,0.666261 0.91611,0.661055 1.02542,1.774961 h -1.04624 q -0.0625,-0.739134 -0.66626,-1.155547 -0.6038,-0.421618 -1.59278,-0.421618 -1.18158,0 -1.90509,0.8068 -0.71832,0.806801 -0.71832,2.274657 0,1.462651 0.72873,2.274657 0.72872,0.8068 1.90509,0.8068 1.65003,0 2.45163,-1.087879 v -1.160752 h -2.0144 v -0.910903 h 2.99297 v 3.893462 h -0.71311 l -0.26546,-0.801595 q -0.77557,0.931725 -2.44122,0.931725 z"
       style="font-style:normal;font-variant:normal;font-weight:normal;font-stretch:normal;font-size:10.66017628px;font-family:'Microsoft Sans Serif';-inkscape-font-specification:'Microsoft Sans Serif, Normal';font-variant-ligatures:normal;font-variant-caps:normal;font-variant-numeric:normal;font-feature-settings:normal;text-align:start;writing-mode:lr-tb;text-anchor:start;fill:#999999;fill-opacity:1;stroke:none;stroke-width:0.30000001;stroke-miterlimit:4;stroke-dasharray:none;stroke-opacity:1"
       id="path4782"
       inkscape:connector-curvature="0" />
    <path
       d="m 115.38382,-17.421246 h -5.68924 v -7.63077 h 5.51227 v 0.905698 h -4.50247 v 2.331914 h 4.21098 v 0.905698 h -4.21098 v 2.581762 h 4.67944 z"
       style="font-style:normal;font-variant:normal;font-weight:normal;font-stretch:normal;font-size:10.66017628px;font-family:'Microsoft Sans Serif';-inkscape-font-specification:'Microsoft Sans Serif, Normal';font-variant-ligatures:normal;font-variant-caps:normal;font-variant-numeric:normal;font-feature-settings:normal;text-align:start;writing-mode:lr-tb;text-anchor:start;fill:#999999;fill-opacity:1;stroke:none;stroke-width:0.30000001;stroke-miterlimit:4;stroke-dasharray:none;stroke-opacity:1"
       id="path4784"
       inkscape:connector-curvature="0" />
    <path
       d="m 123.17595,-17.421246 h -1.09308 l -0.71832,-2.035219 q -0.19259,-0.541337 -0.64023,-0.884878 -0.44765,-0.343541 -1.03062,-0.343541 h -1.86866 v 3.263638 h -1.0098 v -7.63077 h 3.37815 q 0.88488,0 1.44704,0.17177 0.56216,0.171771 0.91611,0.723518 0.35395,0.551747 0.35395,1.244034 0,0.791185 -0.45806,1.322112 -0.45805,0.530927 -1.25444,0.692287 v 0.02082 q 0.79639,0.255053 1.2128,1.379369 z m -5.35091,-4.169336 h 2.25384 q 0.94213,0 1.36375,-0.296694 0.42682,-0.296695 0.42682,-1.025418 0,-1.301291 -1.63442,-1.301291 h -2.40999 z"
       style="font-style:normal;font-variant:normal;font-weight:normal;font-stretch:normal;font-size:10.66017628px;font-family:'Microsoft Sans Serif';-inkscape-font-specification:'Microsoft Sans Serif, Normal';font-variant-ligatures:normal;font-variant-caps:normal;font-variant-numeric:normal;font-feature-settings:normal;text-align:start;writing-mode:lr-tb;text-anchor:start;fill:#999999;fill-opacity:1;stroke:none;stroke-width:0.30000001;stroke-miterlimit:4;stroke-dasharray:none;stroke-opacity:1"
       id="path4786"
       inkscape:connector-curvature="0" />
  </g>
  <g
     aria-label="SECHTANARREN"
     transform="matrix(0.2247225,-0.99955965,0.95232471,0.21401792,49.686676,0.74149258)"
     style="font-style:normal;font-variant:normal;font-weight:normal;font-stretch:normal;font-size:11.27633381px;line-height:1.25;font-family:'Microsoft Sans Serif';-inkscape-font-specification:'Microsoft Sans Serif, Normal';font-variant-ligatures:normal;font-variant-caps:normal;font-variant-numeric:normal;font-feature-settings:normal;text-align:start;letter-spacing:0px;word-spacing:0px;writing-mode:lr-tb;text-anchor:start;fill:#999999;fill-opacity:1;stroke:#999999;stroke-width:0;stroke-miterlimit:4;stroke-dasharray:none;stroke-opacity:1"
     id="text4683">
    <g
       id="g2339"
       transform="translate(-8.1443259,-70.154605)">
      <path
         sodipodi:nodetypes="sccccscssccscsscccscsccccscs"
         inkscape:connector-curvature="0"
         id="path4687"
         style="fill:#999999;fill-opacity:1;stroke-width:0;stroke-miterlimit:4;stroke-dasharray:none"
         d="m -125.99239,137.83389 c -0.97216,-0.62065 -1.57342,-1.30311 -1.80376,-2.04739 -0.22721,-0.74227 -0.15528,-1.46327 0.2158,-2.16301 l 0.87965,0.56159 c -0.25099,0.54439 -0.25854,1.0616 -0.0226,1.55162 0.24085,0.48888 0.63097,0.90551 1.17036,1.24987 0.51117,0.32634 0.98286,0.48354 1.41508,0.47162 0.43536,-0.01 0.75754,-0.19523 0.96653,-0.55591 0.21989,-0.37949 0.2183,-0.7586 -0.005,-1.13731 -0.22306,-0.37872 -0.68157,-0.90345 -1.37553,-1.5742 -0.689,-0.67189 -1.11967,-1.26692 -1.29199,-1.7851 -0.16918,-0.51618 -0.11021,-1.02204 0.17692,-1.51758 0.32348,-0.55827 0.81145,-0.87403 1.46393,-0.94728 0.65562,-0.0712 1.35348,0.12939 2.09358,0.60189 0.61227,0.39089 1.06649,0.83398 1.36265,1.32928 0.08,0.13385 0.14853,0.27151 0.20548,0.41299 0.26768,0.66499 0.22482,1.33581 -0.12859,2.01246 l -0.88905,-0.56758 c 0.39245,-0.89234 0.0634,-1.67385 -0.98717,-2.34455 -0.50803,-0.32434 -0.95702,-0.47994 -1.34699,-0.46681 -0.38995,0.0131 -0.6767,0.17808 -0.86025,0.49485 -0.16718,0.28854 -0.18125,0.57602 -0.0422,0.86244 0.1422,0.28843 0.47999,0.69527 1.01337,1.22054 0.53651,0.52727 0.94693,0.97189 1.23124,1.33386 0.28432,0.36197 0.47418,0.7646 0.5696,1.20791 0.0972,0.44017 0.0105,0.89391 -0.26031,1.36122 -0.34346,0.59277 -0.86554,0.93401 -1.56624,1.02374 -0.69756,0.0917 -1.4258,-0.10466 -2.18471,-0.58916 z" />
      <path
         sodipodi:nodetypes="ccccccccccccc"
         inkscape:connector-curvature="0"
         id="path4689"
         style="fill:#999999;fill-opacity:1;stroke-width:0;stroke-miterlimit:4;stroke-dasharray:none"
         d="m -114.80503,142.87277 -5.68959,-2.05791 2.50538,-7.63168 5.51261,1.99389 -0.29737,0.90581 -4.50274,-1.62862 -0.76563,2.33218 4.21123,1.52318 -0.29736,0.90581 -4.21123,-1.52318 -0.84766,2.58207 4.67973,1.69264 z" />
      <path
         inkscape:connector-curvature="0"
         id="path4691"
         style="fill:#999999;fill-opacity:1;stroke-width:0;stroke-miterlimit:4;stroke-dasharray:none"
         d="m -107.96848,144.0369 q -1.71237,0 -2.73649,-1.12323 -1.01862,-1.12874 -1.01862,-3.05034 0,-1.9216 1.01862,-3.04483 1.02412,-1.12873 2.73649,-1.12873 1.31594,0 2.24095,0.71027 0.92501,0.71028 1.04064,1.87205 h -1.10121 q -0.0661,-0.76534 -0.66622,-1.21683 -0.59465,-0.45149 -1.50315,-0.45149 -1.22784,0 -1.94362,0.84792 -0.71579,0.84243 -0.71579,2.41164 0,1.56371 0.71028,2.41164 0.71028,0.84793 1.92711,0.84793 0.94703,0 1.53067,-0.46251 0.58364,-0.4625 0.66072,-1.32144 h 1.10121 q -0.11563,1.28841 -1.01311,1.99318 -0.89748,0.70477 -2.26848,0.70477 z" />
      <path
         inkscape:transform-center-y="-0.10790051"
         inkscape:transform-center-x="0.64740415"
         inkscape:connector-curvature="0"
         id="path4693"
         style="fill:#999999;fill-opacity:1;stroke-width:0;stroke-miterlimit:4;stroke-dasharray:none"
         d="m -97.069325,144.64184 -1.072001,-0.0628 0.201692,-3.79327 -4.189056,-0.24539 -0.20169,3.79327 -1.06649,-0.0625 0.42852,-8.05933 1.06649,0.0625 -0.17596,3.30948 4.189047,0.24539 0.175968,-3.30948 1.072001,0.0628 z" />
      <path
         sodipodi:nodetypes="ccccccccc"
         inkscape:connector-curvature="0"
         id="path4695"
         style="fill:#999999;fill-opacity:1;stroke-width:0;stroke-miterlimit:4;stroke-dasharray:none"
         d="m -88.708959,137.58671 -2.670002,-0.0494 -0.119496,7.11318 -1.073477,-0.0204 0.119468,-7.11269 -2.647982,-0.049 0.01609,-0.9579 6.39146,0.11877 z" />
      <path
         inkscape:connector-curvature="0"
         id="path4697"
         style="fill:#999999;fill-opacity:1;stroke-width:0;stroke-miterlimit:4;stroke-dasharray:none"
         d="m -84.13691,140.95212 -1.420554,-3.74409 -1.354481,3.74409 z m 2.455686,3.30362 h -1.205819 l -0.936024,-2.45569 h -3.380697 l -0.891976,2.45569 h -1.128735 l 3.099891,-8.07183 h 1.150759 z" />
      <path
         inkscape:connector-curvature="0"
         id="path4699"
         style="fill:#999999;fill-opacity:1;stroke-width:0;stroke-miterlimit:4;stroke-dasharray:none"
         d="m -74.239154,144.12804 h -1.095699 l -4.228625,-6.37047 v 6.37047 h -1.013108 v -8.07183 h 1.090192 l 4.228626,6.37047 v -6.37047 h 1.018614 z" />
      <path
         inkscape:connector-curvature="0"
         id="path4701"
         style="fill:#999999;fill-opacity:1;stroke-width:0;stroke-miterlimit:4;stroke-dasharray:none"
         d="m -68.303094,140.59563 -1.420553,-3.74409 -1.354482,3.74409 z m 2.455686,3.30362 h -1.205819 l -0.936023,-2.45569 h -3.380698 l -0.891976,2.45569 h -1.128734 l 3.09989,-8.07183 h 1.150759 z" />
      <path
         inkscape:connector-curvature="0"
         id="path4703"
         style="fill:#999999;fill-opacity:1;stroke-width:0;stroke-miterlimit:4;stroke-dasharray:none"
         d="m -58.216061,143.89925 h -1.156265 l -0.759831,-2.15286 q -0.203723,-0.57262 -0.677241,-0.93602 -0.473518,-0.3634 -1.090192,-0.3634 h -1.976662 v 3.45228 h -1.068169 v -8.07183 h 3.573409 q 0.936024,0 1.530674,0.1817 0.594651,0.18169 0.96906,0.76533 0.37441,0.58364 0.37441,1.31594 0,0.83692 -0.48453,1.39853 -0.48453,0.56162 -1.326952,0.7323 v 0.022 q 0.842422,0.26979 1.282903,1.45909 z m -5.660191,-4.41033 h 2.384107 q 0.99659,0 1.442578,-0.31384 0.451494,-0.31384 0.451494,-1.08469 0,-1.3765 -1.728891,-1.3765 h -2.549288 z" />
      <path
         inkscape:connector-curvature="0"
         id="path4705"
         style="fill:#999999;fill-opacity:1;stroke-width:0;stroke-miterlimit:4;stroke-dasharray:none"
         d="m -49.456214,143.22528 -1.153745,0.0802 -0.893679,-2.09545 q -0.239321,-0.55724 -0.734679,-0.88701 -0.495359,-0.32977 -1.11069,-0.28701 l -1.972355,0.13707 0.217291,3.44472 -1.06584,0.0741 -0.508052,-8.05415 3.565622,-0.24779 q 0.933984,-0.0649 1.538775,0.0752 0.604791,0.14006 1.015119,0.69645 0.410329,0.5564 0.456421,1.2871 0.05268,0.83509 -0.395449,1.42906 -0.448125,0.59399 -1.277967,0.82272 l 0.0014,0.022 q 0.857567,0.21078 1.371945,1.36693 z m -5.925449,-4.00817 2.378913,-0.16532 q 0.994419,-0.0691 1.419681,-0.41319 0.430756,-0.34446 0.382238,-1.11362 -0.08664,-1.37349 -1.811763,-1.2536 l -2.543733,0.17677 z" />
      <path
         inkscape:connector-curvature="0"
         id="path4707"
         style="fill:#999999;fill-opacity:1;stroke-width:0;stroke-miterlimit:4;stroke-dasharray:none"
         d="m -42.220302,143.27788 -6.017057,0.11714 -0.142626,-8.07042 5.829885,-0.11352 0.01693,0.95789 -4.761898,0.0927 0.04359,2.46626 4.453612,-0.0867 0.01693,0.95788 -4.453613,0.0867 0.04825,2.73051 4.94907,-0.0964 z" />
      <path
         inkscape:connector-curvature="0"
         id="path4709"
         style="fill:#999999;fill-opacity:1;stroke-width:0;stroke-miterlimit:4;stroke-dasharray:none"
         d="m -34.544254,143.20341 h -1.095699 l -4.228625,-6.37047 v 6.37047 h -1.013108 v -8.07183 h 1.090192 l 4.228626,6.37047 v -6.37047 h 1.018614 z" />
    </g>
  </g>
  <text
     xml:space="preserve"
     style="font-style:normal;font-variant:normal;font-weight:normal;font-stretch:normal;font-size:8.43005371px;line-height:1.25;font-family:'Microsoft Sans Serif';-inkscape-font-specification:'Microsoft Sans Serif, Normal';font-variant-ligatures:normal;font-variant-caps:normal;font-variant-numeric:normal;font-feature-settings:normal;text-align:start;letter-spacing:0px;word-spacing:0px;writing-mode:lr-tb;text-anchor:start;fill:#666abd;fill-opacity:1;stroke:none;stroke-width:0.99999988"
     x="55.316936"
     y="37.860043"
     id="text4611"
     transform="rotate(9.0971022)"><tspan
       sodipodi:role="line"
       id="tspan4609"
       x="55.316936"
       y="37.860043"
       style="fill:#666abd;fill-opacity:1;stroke-width:0.99999988">1983</tspan></text>
  <path
     style="fill:none;stroke:#ccccba;stroke-width:0.5669291;stroke-linecap:round;stroke-linejoin:round;stroke-miterlimit:4;stroke-dasharray:none;stroke-opacity:1"
     d="m 65.103361,75.995609 c 0,0 -0.263469,1.743576 0.114444,2.479668 0.140593,0.273845 0.422038,0.516756 0.724826,0.572231 0.498442,0.09132 1.021628,-0.186529 1.449652,-0.457785 0.790464,-0.500949 1.271625,-1.194742 1.907438,-2.060032 z"
     id="path4613"
     inkscape:connector-curvature="0"
     sodipodi:nodetypes="caaacc" />
  <path
     style="fill:none;stroke:#ccccba;stroke-width:0.5669291;stroke-linecap:round;stroke-linejoin:miter;stroke-miterlimit:4;stroke-dasharray:none;stroke-opacity:1"
     d="m 67.821178,70.064835 -1.83114,2.899305 c 0,0 0.345761,0.573096 0.61038,0.762975 0.241857,0.173546 0.839272,0.305189 0.839272,0.305189"
     id="path4615"
     inkscape:connector-curvature="0"
     sodipodi:nodetypes="ccac" />
  <path
     style="fill:none;stroke:#ccccba;stroke-width:0.5669291;stroke-linecap:round;stroke-linejoin:miter;stroke-miterlimit:4;stroke-dasharray:none;stroke-opacity:1"
     d="m 70.392152,72.463578 -1.068165,-0.343339 c 0,0 0.6067,-1.711994 1.258909,-2.288925 0.35904,-0.317599 0.881889,-0.689916 1.335206,-0.534082 0.334128,0.114861 0.484237,0.565784 0.534082,0.91557 0.05917,0.415248 -0.30519,1.220759 -0.30519,1.220759"
     id="path4617"
     inkscape:connector-curvature="0"
     sodipodi:nodetypes="ccaaac" />
  <path
     inkscape:connector-curvature="0"
     id="path4619"
     d="m 65.799295,71.056703 -0.801124,-0.30519 c 0,0 0.702971,-1.529726 1.297057,-2.098181 0.357852,-0.342412 0.819269,-0.855293 1.297058,-0.724826 0.340841,0.09307 0.484237,0.565784 0.534082,0.91557 0.05917,0.415248 -0.30519,1.220759 -0.30519,1.220759"
     style="fill:none;stroke:#ccccba;stroke-width:0.5669291;stroke-linecap:round;stroke-linejoin:miter;stroke-miterlimit:4;stroke-dasharray:none;stroke-opacity:1"
     sodipodi:nodetypes="ccaaac" />
  <ellipse
     style="opacity:1;fill:#ccccba;fill-opacity:1;fill-rule:nonzero;stroke:#ccccba;stroke-width:0.5669291;stroke-linecap:round;stroke-linejoin:round;stroke-miterlimit:4;stroke-dasharray:none;stroke-dashoffset:0;stroke-opacity:1;paint-order:fill markers stroke"
     id="path4626"
     cx="87.342354"
     cy="49.638321"
     rx="0.53408241"
     ry="0.97279298"
     transform="rotate(15.774537)"
     inkscape:transform-center-x="-0.11444623"
     inkscape:transform-center-y="0.038148745" />
  <ellipse
     transform="rotate(18.845013)"
     ry="0.97279298"
     rx="0.53408241"
     cy="45.030617"
     cx="85.208038"
     id="ellipse4628"
     style="opacity:1;fill:#ccccba;fill-opacity:1;fill-rule:nonzero;stroke:#ccccba;stroke-width:0.5669291;stroke-linecap:round;stroke-linejoin:round;stroke-miterlimit:4;stroke-dasharray:none;stroke-dashoffset:0;stroke-opacity:1;paint-order:fill markers stroke" />
  <path
     style="fill:none;stroke:#ccccba;stroke-width:0.5669291;stroke-linecap:butt;stroke-linejoin:miter;stroke-miterlimit:4;stroke-dasharray:none;stroke-opacity:1"
     d="m 55.750818,81.778277 c 0.924638,-0.80154 1.006603,-0.965732 1.45033,-1.501875 0.606931,-0.733337 0.818654,-1.134482 1.441984,-1.337917 0.581302,-0.189719 1.381185,-0.209685 1.821883,0.214214 0.437623,0.420939 0.47377,1.223125 0.282843,1.799537 -0.486039,1.467355 -3.312395,3.245354 -3.312395,3.245354"
     id="path4630"
     inkscape:connector-curvature="0"
     sodipodi:nodetypes="csaaac" />
  <path
     style="fill:none;stroke:#ccccba;stroke-width:0.5669291;stroke-linecap:butt;stroke-linejoin:miter;stroke-miterlimit:4;stroke-dasharray:none;stroke-opacity:1"
     d="m 60.792552,86.486514 c 0,0 0.803966,-1.38528 1.068165,-2.136329 0.216294,-0.614867 -0.09919,-1.508262 0.413091,-1.911272 0.472593,-0.371789 1.244573,-0.177378 1.803371,0.04469 0.440884,0.175212 0.944844,0.4905 1.058908,0.951008 0.174526,0.704607 -0.61412,1.330756 -0.753718,2.043107 -0.15279,0.779668 -0.0801,2.382147 -0.0801,2.382147"
     id="path4632"
     inkscape:connector-curvature="0"
     sodipodi:nodetypes="caaaaac" />
  <path
     style="fill:none;stroke:#ccccba;stroke-width:0.5669291;stroke-linecap:butt;stroke-linejoin:miter;stroke-miterlimit:4;stroke-dasharray:none;stroke-opacity:1"
     d="m 69.261574,88.317654 c 0,0 -0.297638,-1.370254 -0.422347,-2.060032 -0.16465,-0.910695 -0.851557,-1.918995 -0.430016,-2.742875 0.397293,-0.776489 1.475484,-1.339894 2.333616,-1.183735 0.889281,0.161828 2.037281,1.014476 1.83114,2.000002 -0.261952,1.252348 -0.425784,1.516139 -0.0316,3.528855"
     id="path4634"
     inkscape:connector-curvature="0"
     sodipodi:nodetypes="caaasc" />
  <path
     style="fill:none;stroke:#ccccba;stroke-width:0.5669291;stroke-linecap:butt;stroke-linejoin:miter;stroke-miterlimit:4;stroke-dasharray:none;stroke-opacity:1"
     d="m 77.546809,86.957522 c 0,0 -0.971502,-1.109007 -1.25661,-1.775733 -0.329196,-0.769825 -0.749076,-1.672569 -0.480132,-2.465455 0.192389,-0.567191 0.746796,-1.177675 1.345585,-1.190745 0.718204,-0.01568 1.337657,0.722035 1.674711,1.35643 0.49399,0.929778 0.273587,3.14671 0.273587,3.14671"
     id="path4636"
     inkscape:connector-curvature="0"
     sodipodi:nodetypes="caaaac" />
</svg>
