<?xml version="1.0" standalone="no"?>
<!DOCTYPE svg PUBLIC "-//W3C//DTD SVG 20010904//EN"
 "http://www.w3.org/TR/2001/REC-SVG-20010904/DTD/svg10.dtd">
<svg version="1.0" xmlns="http://www.w3.org/2000/svg"
 width="1344.000000pt" height="1344.000000pt" viewBox="0 0 1344.000000 1344.000000"
 preserveAspectRatio="xMidYMid meet">
<metadata>
Created by potrace 1.11, written by Peter Selinger 2001-2013
</metadata>
<g transform="translate(0.000000,1344.000000) scale(0.100000,-0.100000)"
fill="#000000" stroke="none">
<path d="M4985 13413 c4 -27 11 -107 20 -248 3 -38 7 -91 10 -116 7 -71 18
-265 19 -346 1 -40 5 -73 10 -73 5 0 3 -6 -3 -13 -6 -8 -8 -17 -4 -21 10 -10
11 -806 1 -806 -5 0 -41 24 -81 53 -73 54 -261 167 -277 167 -4 0 -10 4 -12 8
-9 22 -393 191 -469 206 -8 2 -21 6 -29 9 -21 8 -168 48 -194 52 -117 20 -488
39 -501 26 -3 -2 -30 -5 -62 -6 -62 -3 -155 -13 -193 -20 -14 -3 -41 -7 -62
-10 -21 -3 -57 -13 -81 -21 -23 -9 -49 -17 -57 -19 -20 -4 -157 -53 -195 -69
-112 -47 -205 -92 -205 -99 0 -4 13 -31 29 -60 52 -96 144 -271 183 -352 21
-44 45 -92 53 -107 16 -27 104 -241 111 -268 5 -20 115 -349 125 -375 4 -11
18 -54 29 -95 12 -41 30 -102 40 -135 32 -105 93 -316 96 -330 1 -5 7 -30 15
-55 7 -25 14 -49 15 -55 81 -285 123 -456 111 -460 -27 -10 -104 -27 -124 -29
-13 0 -23 -5 -23 -10 0 -5 -3 -6 -7 -3 -3 4 -12 2 -20 -4 -7 -6 -13 -9 -13 -5
0 3 -11 1 -25 -4 -14 -5 -36 -12 -48 -14 -12 -3 -43 -12 -69 -20 -25 -8 -49
-12 -52 -9 -3 4 -6 0 -6 -7 0 -7 -2 -11 -6 -8 -9 10 -325 -102 -406 -143 -24
-12 -44 -21 -46 -20 -6 4 -179 -93 -217 -123 -54 -41 -119 -106 -134 -133 -7
-15 -9 -60 -6 -140 3 -65 8 -171 10 -236 2 -65 6 -121 9 -124 2 -3 1 -15 -4
-28 -5 -13 -6 -26 -2 -30 4 -3 7 -32 8 -63 3 -73 12 -325 19 -467 2 -60 7
-168 9 -240 3 -71 8 -184 11 -250 3 -66 7 -169 10 -230 2 -60 7 -171 10 -245
4 -74 8 -185 10 -247 2 -62 6 -117 10 -122 3 -6 1 -11 -5 -11 -6 0 -8 -5 -4
-12 4 -6 9 -64 10 -127 9 -371 14 -555 20 -706 4 -93 7 -191 8 -217 0 -27 4
-48 9 -48 4 0 6 -4 3 -8 -8 -13 -8 -65 -2 -167 3 -49 8 -135 11 -190 3 -55 8
-136 11 -180 3 -44 7 -120 9 -170 3 -49 7 -106 9 -125 2 -19 7 -80 11 -135 3
-55 8 -116 10 -135 2 -19 6 -69 10 -110 6 -80 10 -116 21 -220 4 -36 8 -76 9
-90 1 -14 3 -25 4 -25 1 0 4 -20 6 -45 6 -66 13 -127 25 -200 17 -101 21 -133
24 -166 2 -17 6 -35 8 -40 3 -5 9 -34 13 -64 4 -30 9 -64 11 -75 2 -11 9 -45
14 -75 6 -30 13 -71 16 -90 6 -43 9 -61 16 -80 3 -8 12 -49 19 -90 15 -91 12
-76 38 -185 12 -49 24 -106 27 -125 3 -19 9 -37 13 -40 3 -3 7 -16 9 -30 2
-24 76 -278 89 -310 3 -8 7 -18 8 -22 2 -5 3 -9 5 -10 1 -2 3 -10 5 -19 1 -9
10 -32 18 -50 30 -68 62 -154 59 -161 -1 -5 2 -8 8 -8 5 0 10 -6 10 -12 0 -7
18 -49 40 -93 22 -44 40 -86 40 -92 0 -7 3 -13 8 -13 4 0 20 -26 37 -58 31
-61 145 -233 176 -268 11 -11 19 -23 19 -27 0 -4 11 -20 24 -35 13 -15 52 -61
86 -102 130 -158 484 -523 600 -620 30 -25 65 -55 78 -67 12 -13 27 -23 32
-23 4 0 10 -4 12 -8 5 -13 136 -112 148 -112 5 0 10 -4 10 -8 0 -10 215 -152
230 -152 5 0 10 -3 10 -8 0 -4 15 -13 33 -21 17 -8 34 -17 37 -21 10 -12 356
-197 373 -198 7 -1 67 -26 91 -38 16 -8 33 -14 38 -14 4 0 27 -9 51 -19 69
-31 127 -51 127 -45 0 4 6 1 13 -5 17 -14 277 -91 362 -107 38 -7 46 -10 65
-17 8 -3 31 -8 50 -11 19 -3 49 -7 65 -11 17 -3 41 -8 55 -10 221 -42 580 -51
875 -21 50 5 129 16 145 21 8 2 31 6 50 9 49 8 65 11 155 35 44 12 89 24 101
26 46 10 315 105 409 145 114 48 288 132 356 171 25 14 65 37 90 51 37 22 136
82 289 176 46 28 49 31 158 107 51 36 95 65 98 65 2 0 12 7 22 16 66 59 99 84
110 84 6 0 12 5 12 10 0 6 13 18 30 29 16 10 27 21 23 24 -3 4 -1 7 6 7 7 0
18 6 26 13 7 6 41 37 76 67 130 113 384 374 468 479 20 26 42 53 49 61 27 31
92 124 92 131 0 4 6 14 13 21 19 18 107 166 107 178 0 5 4 10 8 10 8 0 36 60
33 73 0 4 3 7 8 7 5 0 21 29 36 65 16 36 32 65 37 65 5 0 7 4 3 9 -3 5 -1 12
5 16 5 3 10 15 10 26 0 10 5 19 12 19 6 0 9 3 5 6 -3 4 4 27 17 53 31 64 89
211 89 227 0 8 4 14 8 14 3 0 9 10 12 23 6 25 33 103 47 132 7 16 30 84 35
105 1 3 5 12 8 20 24 58 56 164 51 171 -3 5 0 9 6 9 6 0 10 6 9 12 -1 7 1 20
4 28 12 29 63 213 71 255 1 6 5 16 9 23 5 6 6 12 4 12 -3 0 6 39 19 88 14 48
27 98 29 112 2 14 11 52 20 85 9 33 18 74 21 90 10 48 12 60 15 65 1 3 3 10 4
15 1 6 4 24 8 40 12 48 18 79 22 100 3 11 9 38 14 60 5 22 12 51 15 65 6 31
14 66 22 105 4 17 8 39 10 50 2 11 6 31 9 45 4 14 8 36 10 50 2 14 15 80 29
147 14 67 29 139 32 160 3 21 8 41 10 44 2 4 6 24 9 45 5 39 10 65 20 114 3
14 8 39 10 55 3 17 9 53 15 80 6 28 13 66 16 85 3 19 8 44 11 55 8 24 9 28 17
80 4 22 11 56 16 75 5 19 12 53 15 75 3 22 8 47 11 55 3 8 8 26 10 40 3 14 10
50 16 80 6 30 11 58 10 62 -1 4 2 18 7 31 5 13 12 39 15 58 3 19 8 45 11 59 3
14 8 39 11 55 3 17 14 73 26 125 11 52 22 106 24 120 3 14 7 32 9 40 2 8 7 29
10 45 2 17 12 64 20 105 17 80 23 110 29 150 3 14 5 26 7 28 3 4 5 14 14 67
10 57 12 64 14 68 2 1 4 13 7 27 2 14 11 59 20 100 9 41 18 86 19 100 1 14 3
25 4 25 3 0 11 32 16 65 6 39 15 83 22 110 9 35 12 50 19 90 11 66 12 75 14
78 3 3 5 10 15 67 4 28 9 55 11 60 5 21 33 161 38 187 7 41 33 174 66 333 28
138 67 336 76 385 3 21 43 214 58 285 3 11 6 36 8 55 2 19 6 37 10 40 3 3 9
30 13 60 4 30 9 59 12 63 2 4 6 22 9 40 2 18 9 56 15 86 11 53 10 55 -18 81
-27 26 -81 62 -148 102 -86 51 -406 203 -490 233 -27 10 -54 22 -60 25 -10 7
-146 51 -173 56 -8 1 -21 6 -30 10 -16 6 -41 12 -69 16 -20 2 -16 17 19 72 44
72 82 130 88 136 3 3 11 17 17 33 7 15 17 27 23 27 5 0 10 5 10 11 0 11 65
107 130 190 19 25 46 60 60 79 14 18 30 38 35 44 6 6 33 40 60 76 28 36 57 72
65 81 8 8 25 29 38 46 13 17 39 48 57 69 19 21 36 48 40 61 6 27 -10 63 -28
63 -7 0 -19 6 -26 13 -6 6 -15 12 -19 12 -4 1 -23 8 -42 17 -34 15 -64 28 -85
34 -5 2 -81 28 -167 58 -87 29 -158 52 -158 50 0 -2 -12 1 -27 7 -16 6 -37 12
-48 14 -38 7 -120 27 -124 31 -4 4 45 80 67 103 7 8 21 26 30 40 9 14 20 31
24 36 5 6 28 37 53 70 24 33 48 65 52 70 5 6 44 60 88 120 43 61 103 142 132
181 58 78 60 84 38 84 -8 0 -15 5 -15 10 0 6 -5 10 -10 10 -6 0 -16 5 -23 11
-13 11 -79 52 -87 54 -10 2 -85 40 -90 45 -6 6 -124 48 -155 55 -11 2 -38 9
-60 14 -22 6 -41 10 -42 11 -2 0 -4 0 -5 1 -7 2 -85 17 -123 24 -11 2 -33 6
-50 9 -91 18 -90 18 -265 33 -88 8 -327 7 -420 -1 -111 -9 -163 -15 -196 -20
-16 -3 -47 -8 -69 -12 -22 -3 -44 -7 -50 -9 -12 -2 -84 -17 -105 -20 -48 -9
-231 -58 -265 -71 -22 -9 -42 -16 -45 -16 -19 -2 -154 -50 -167 -61 -7 -5 -13
-6 -13 -3 0 4 -12 1 -27 -7 -16 -8 -45 -22 -67 -31 -37 -16 -39 -16 -52 3 -8
11 -21 27 -29 35 -8 8 -15 17 -15 21 0 7 -51 74 -87 115 -13 13 -23 28 -23 32
0 3 -6 13 -13 20 -7 7 -35 42 -62 78 -27 36 -70 90 -95 120 -25 31 -54 68 -65
84 -19 27 -46 58 -86 102 -10 12 -19 24 -19 27 0 3 -12 18 -27 34 -16 16 -55
60 -88 98 -80 93 -355 367 -430 430 -33 27 -65 54 -71 60 -6 5 -28 24 -49 40
-21 17 -47 38 -57 48 -10 9 -18 15 -18 12 0 -3 -10 4 -22 14 -13 11 -34 29
-47 40 -13 12 -30 21 -38 21 -7 0 -13 5 -13 10 0 6 -7 10 -15 10 -8 0 -15 5
-15 10 0 6 -7 10 -15 10 -8 0 -15 4 -15 9 0 5 -13 14 -30 21 -16 7 -30 15 -30
19 0 4 -12 12 -27 19 -16 6 -46 23 -68 37 -22 14 -49 30 -60 35 -11 6 -42 24
-70 40 -27 17 -66 38 -85 47 -19 9 -38 21 -41 26 -3 4 -12 9 -20 10 -8 2 -48
19 -89 39 -113 54 -207 96 -280 124 -25 9 -49 21 -55 26 -5 4 -15 8 -22 8 -8
0 -30 7 -51 17 -43 19 -34 16 -92 32 -25 7 -51 18 -57 23 -7 6 -13 8 -13 5 0
-3 -55 12 -122 34 -67 21 -125 36 -130 33 -4 -3 -8 -1 -8 4 0 5 -6 9 -12 10
-27 4 -54 9 -68 15 -16 7 -94 27 -123 33 -10 2 -27 6 -37 9 -20 6 -51 13 -90
21 -35 6 -122 25 -142 30 -13 4 -16 -1 -13 -23z"/>
</g>
</svg>
