<svg id="Ebene_2" data-name="Ebene 2" xmlns="http://www.w3.org/2000/svg" viewBox="0 0 437.12 437.12"><defs><style>.cls-1{fill:#fff;}</style></defs><title>Logo3</title><path class="cls-1" d="M369.6,396.22a14.66,14.66,0,0,0-4.94,14c1.78,8.9-6.73,11.07-6.73,11.07l-17.52,3.41-2.08.41c6.84,7.76,15.74,14.81,27.06,18.69l.5.3a47.51,47.51,0,0,1,44.8-63.21c.37,0,.75,0,1.12,0a64.72,64.72,0,0,1-11.15-7.09S387.6,390.49,369.6,396.22Z" transform="translate(-180.91 -60.88)"/><path class="cls-1" d="M493.44,222q-2.67-.77-5.36-1.47t-5.39-1.34l-2.17-.5c-1.92-.45-3.84-.86-5.77-1.25q-4.08-.84-8.19-1.55c-67.24-11.77-134,1-149,4.31l-.48.1-.88.19-1,.23-.74.17h0c-.5.12-18.37,4.25-22.26,6.2l24.67,151.76A94.6,94.6,0,0,0,328.72,412l1.25,1.74a15.06,15.06,0,0,0,1.73-1.12,28.9,28.9,0,0,0,5.46-5.49s11.48-6.13,17.41-15.23,13.06-33.23,13.06-33.23,4.55-16.42,17.6-9.1c0,0,2.18-6.13,10.68-4.74l21.4,2s.36-14.52.56-18.23c0,0-12.57.23-23.4-2.93,0,0-3.11,5.54-11,.79l-2,4.35,2.18,8.31-6.93,1.19-2.37-8.51a7,7,0,0,1-5.34-6.92s-11.27-3-4.94-15.23L360.37,298s-21.89-4.22-29-29.54,8.44-34,8.44-34,20.57-10.28,33,20.05c0,0,6.86,21.62-3.17,39.56l3.17,13.18,7.71-2.37s1.39-5.54,30.46-21.17c0,0,3-14.24,19.19-13.64,0,0-7.51-49.65,68.05-38.18,0,0-20.38,4.55-27.7,20.18,0,0,3,17.6-16.41,20.37l10.28,3.16s11.87,1.78,11.08,10.49-5.14,10.06-5.14,10.06-5.54,36.62-11.28,45.52l20.18,24.13s-4.95,5.94-9.3,5.34l5.34,14.24s-12.26-4.15-17.6-10.87a39.18,39.18,0,0,1-26.36,11.15,47.55,47.55,0,0,1,25,56c6.32-4.95,21-18.08,28-38.09,12-34.42,31.25-175.3,31.25-175.3s-14.44-4-17.78-5C496.29,222.82,494.86,222.39,493.44,222Z" transform="translate(-180.91 -60.88)"/><path class="cls-1" d="M180.91,60.88V498H618V60.88Zm330.58,330a114.18,114.18,0,0,1-21.21,49.54C474.68,461,447.74,481.89,403,480.26c-39.34-1.43-64.76-17.81-80.79-35.3A111,111,0,0,1,295,389.28l-32.7-184s14.55-5.43,39.69-10.81C300.73,150.85,271.69,123,271.69,123c38.77-15,69.89,2.9,69.89,2.9,2.64-23.74-4-49.58-4-49.58,56.18-.27,108.13,62.77,108.13,62.77,31.13-21.89,71.48-11.61,71.48-11.61l-13.72,31.65c9.76-1.32,23.74,3.69,23.74,3.69l-16.56,33.5q16.21,3.78,32.91,9Z" transform="translate(-180.91 -60.88)"/></svg>