<svg id="svg815" xmlns="http://www.w3.org/2000/svg" viewBox="0 0 112.33 167.51"><defs><style>.cls-1{fill:#c4c2ba;}.cls-1,.cls-21,.cls-5{stroke:#999;}.cls-19,.cls-2{fill:#fff578;}.cls-2{stroke:#a6a050;}.cls-14,.cls-3,.cls-9{fill:#f2f2dd;}.cls-12,.cls-14,.cls-26,.cls-29,.cls-3,.cls-30,.cls-31,.cls-32,.cls-33{stroke:#ccccba;}.cls-4{fill:#c42614;}.cls-10,.cls-13,.cls-4,.cls-8{stroke:#801a14;}.cls-5{fill:#c5c4bc;stroke-width:1.13px;}.cls-23,.cls-26,.cls-27,.cls-29,.cls-31,.cls-32,.cls-5{stroke-linejoin:round;}.cls-6{fill:#f5e28e;stroke:#ccbb76;}.cls-18,.cls-20,.cls-7{fill:#656abc;}.cls-20,.cls-7{stroke:#3c3b66;}.cls-8{fill:#c52212;}.cls-27,.cls-9{stroke:#ccccb9;}.cls-10,.cls-11{fill:#c52514;}.cls-11{stroke:#801914;}.cls-12,.cls-26{fill:#f2f2dc;}.cls-13{fill:#c42514;}.cls-14,.cls-20{stroke-width:1px;}.cls-15,.cls-17{fill:#baa21e;}.cls-15{stroke:#99841c;}.cls-16{fill:#f4e18d;stroke:#ccba76;}.cls-17{stroke:#99841b;}.cls-18{stroke:#3c3a99;}.cls-19{stroke:#a69f4f;}.cls-21,.cls-27,.cls-29,.cls-30,.cls-33{fill:none;}.cls-22,.cls-23,.cls-24,.cls-25{fill:#999;}.cls-22,.cls-23{stroke:#c42212;}.cls-22{stroke-width:0.1px;}.cls-23{stroke-width:1.2px;}.cls-24{stroke:#6669bd;stroke-width:0.8px;}.cls-27,.cls-29,.cls-30,.cls-31,.cls-32{stroke-linecap:round;}.cls-27{stroke-width:0.61px;}.cls-28{isolation:isolate;font-size:8.43px;fill:#666abd;font-family:ArialMT, Arial;}.cls-29,.cls-30,.cls-33{stroke-width:0.57px;}.cls-31,.cls-32{fill:#ccccba;}.cls-31{stroke-width:0.57px;}.cls-32{stroke-width:0.57px;}</style></defs><title>orden_neu2</title><g id="g4675"><path id="path831" class="cls-1" d="M66.6,49s-11.5.1-17.2.6c-4.9.5-8.2,1.1-14.7,2.2m.1.1c-1.7.5-13.2,3-15.3,6.7l1.3,31.3s.4,24.3,2.4,36.3c1.2,7.1,2.4,14.3,5.6,20.7,2.2,4.5,5.7,8.3,9.3,11.9a45.06,45.06,0,0,0,10.4,8,47,47,0,0,0,14.5,5.4,39.27,39.27,0,0,0,14.5,0,46.58,46.58,0,0,0,15.1-6.3,55.23,55.23,0,0,0,14.9-12.7c3.4-4.3,5.5-9.5,7.3-14.7,3.1-8.6,6.3-26.8,6.3-26.8l5.4-26.3,4.3-21.6c.5-.2-7.2-4.7-12.9-5.8m-.3-.1a145.65,145.65,0,0,0-23.3-6l-1.7-.3" transform="translate(-18.99 -5.91)"/><path id="path833" class="cls-2" d="M41.4,143.14a47.82,47.82,0,0,0,4.3,4.9,52.48,52.48,0,0,0,5.8,4l37.1.3c6.5-3.6,9.6-6.9,12.3-12.9,1.8-4.1,3.5-10.6,5-16,1.6-5.9,3.9-17.9,3.9-17.9L113.5,88l3.5-19.4s-1-1.3-4.1-2.4c-24.1-7.8-48.3-15.2-76.4-5-5.3.8-5.4,2.2-5.4,2.2l.9,23.3L33.9,124a63.09,63.09,0,0,0,1.5,7.8c.4,1.2.7,1.2,1.6,3.5" transform="translate(-18.99 -5.91)"/><path id="path843" class="cls-3" d="M42.9,132a40.09,40.09,0,0,0,4.4-4.8,54,54,0,0,0,3.7-7.3l4.5,2.2c-1.8,9.2-6.8,10.6-12.6,9.9Z" transform="translate(-18.99 -5.91)"/><path id="path835" class="cls-4" d="M74.6,58.44c-9.1-.9-39.4,3.6-37.2,3.2l-2.6-9.7h0S31.2,37.74,28.5,31c-1.1-2.7-3.9-7.8-3.9-7.8A36.06,36.06,0,0,1,30.4,21a30.29,30.29,0,0,1,10.4-.2,30.88,30.88,0,0,1,9.1,3.6,24,24,0,0,1,4.8,3.3C78.7,38.84,78.1,48.64,74.6,58.44Z" transform="translate(-18.99 -5.91)"/><ellipse id="path827" class="cls-5" cx="52.11" cy="141.93" rx="19.2" ry="19.5"/><path id="path869" class="cls-6" d="M80.1,140.64l1.9,6.5,2.5,9.6.9,4.1a17,17,0,0,1-11.4,6.4c-6.8.8-13.1-1.1-17-6.2l6-6.9c-2.1-3.2.2-4.6-.4-7.5l2.1-1.9-2.5-1.4,4.3-3.5" transform="translate(-18.99 -5.91)"/><path id="path837" class="cls-7" d="M68.4,38.34,54.7,27.64s.1-8.3-.1-12.5c-.1-2.9-.6-8.6-.6-8.6a86.57,86.57,0,0,1,10.1,2.8,60.69,60.69,0,0,1,13.4,6.9A56.31,56.31,0,0,1,85.9,24c2.9,3.2,8,10.1,8,10.1-5,2.4-8.1,12.2-13.4,13C77.3,47.54,72.2,40.94,68.4,38.34Z" transform="translate(-18.99 -5.91)"/><path id="path839" class="cls-8" d="M79.6,44.74s8.9-8,14.3-10.5a39.08,39.08,0,0,1,13.4-3.5,35.17,35.17,0,0,1,12.9,1.5,19.52,19.52,0,0,1,3.2,1.7l-6.3,8.6a28.34,28.34,0,0,0-6.3-.2c-2.6.2-6.7,1.8-8.6,2.6C95.4,47.14,88.1,48.24,79.6,44.74Z" transform="translate(-18.99 -5.91)"/><path id="path841" class="cls-9" d="M31.3,141.44c-.7-.2-.6-1.9-.6-1.9s1.3-.3,1.5-.9a1.5,1.5,0,0,0-.6-1.5c-.7-.6-2.1-1-2.8-.4s-.4,2-.2,3a7.63,7.63,0,0,0,2.6,4.5,7.89,7.89,0,0,0,5,1.1c2.3-.1,4.4-1.7,6.7-2.2a62.83,62.83,0,0,1,6.3-.6,18.1,18.1,0,0,1-1.1-3.9,16.55,16.55,0,0,1,.6-3.9s2.3-1.3,3.5-1.9c2.7-1.3,5.8-1.9,8.2-3.7a18.15,18.15,0,0,0,3-3.9s-3.4-1.2-5.1-2c-.9-.4-2.7-1.3-2.7-1.3a37.34,37.34,0,0,1-4.1,6,12.29,12.29,0,0,1-3.6,2.3c-1.3.6-2.8.7-4.1,1.3a24.25,24.25,0,0,0-4.4,2.6,20,20,0,0,0-4.4,4.3c-1,1.4-2.2,3.4-3.7,3Z" transform="translate(-18.99 -5.91)"/><path id="path847" class="cls-10" d="M51,119.84s.8-3.6,1.9-5.1a8.49,8.49,0,0,1,3.5-2.7,7,7,0,0,1,3.5-.6c2.3.1,6.7,1.9,6.7,1.9C68.9,123.94,63.8,126,51,119.84Z" transform="translate(-18.99 -5.91)"/><path id="path845" class="cls-11" d="M88.7,126.14a9,9,0,0,1-1.5,3,6.54,6.54,0,0,1-4.3,1.4c-1.7,0-3.2-1-4.7-1.6a64,64,0,0,1-8.2-4.3c-.7-.5-2.2-1.5-2.2-1.5s-1.5.8-2.2,1.1-2.3,1-2.3,1L55.5,122a18.09,18.09,0,0,1,1.9-4.5,12.37,12.37,0,0,1,5-3.7,9.43,9.43,0,0,1,4.1-.4,58.05,58.05,0,0,1,8.4,1.5C89.3,110.64,87.5,119.64,88.7,126.14Z" transform="translate(-18.99 -5.91)"/><path id="path849" class="cls-10" d="M65.4,99s4.3-1.2,6.4-1.7c.9-.2,2.6-.5,2.6-.5l1,4.7a46.1,46.1,0,0,1,.5,6.8,52.58,52.58,0,0,1-1.1,6.7c2.3.6,4.6,1.2,6.3,2.8a14.1,14.1,0,0,1,0,3,9.94,9.94,0,0,1-1.7,4.1,5.29,5.29,0,0,1-1.1.9,15.66,15.66,0,0,0,4.3-.4c1.6-.7,3.9-3.5,3.9-3.5a35,35,0,0,0,2.2,4.3c1,1.5,2,3.3,3.7,4.1,1.3.6,4.3.2,4.3.2a20.91,20.91,0,0,1-2.4-3.2,13.71,13.71,0,0,1-.6-3l4.5.2s-2.9-3.1-4.1-4.7c-1.3-1.8-3.5-5.8-3.5-5.8a56.38,56.38,0,0,0,2.8-5,41.23,41.23,0,0,0,2.4-6.7,25.81,25.81,0,0,0,1.1-7.8,5.92,5.92,0,0,0-.4-1.5l-21.8-5.2a88.54,88.54,0,0,0-14.5,8C60.5,98.14,62.3,99.14,65.4,99Z" transform="translate(-18.99 -5.91)"/><path id="path851" class="cls-10" d="M65.4,99s6.9,1.2,10.3,1a37.3,37.3,0,0,0,6.3-1.3l5.5-1.9s3.2-.9,4.2,0,.6,2.3.4,3.5a4,4,0,0,1-1,2.4c-1.6,1.5-4.1,1.9-6.3,2.4a35.4,35.4,0,0,1-8.6.9,43.18,43.18,0,0,1-6.2-.5c-1.8-.3-5.4-1.1-5.4-1.1" transform="translate(-18.99 -5.91)"/><path id="path853" class="cls-12" d="M82.2,83.44s-1.7-.2-2.6-.2c-2.7.3-7.7.5-6.9,2.7,0,.9.8,1.3,1.4,1.7.8.5,2.3.1,2.8.9s-1.3,1.9-1.1,3a2,2,0,0,0,1.9,1.6c1.5,0,1.9-1,3-1a3.29,3.29,0,0,1,2.2.8c.6.6.2,1.9.9,2.4a3.6,3.6,0,0,0,3.2.2c.8-.3,1-1.4,1.7-1.7a3.93,3.93,0,0,1,2.4,0c1.1.3,1.9,1.7,3,1.5,1.4-.2,1.6-2.5,2.9-3,1.5-.5,4,2,4.9.6s-1.4-2.7-2.5-3.7a10.07,10.07,0,0,0-3.3-2,45.89,45.89,0,0,0-5.4-1.8" transform="translate(-18.99 -5.91)"/><path id="path857" class="cls-13" d="M98.4,78a36,36,0,0,1,4.5-4.5,20.84,20.84,0,0,1,4.7-2.4,21.7,21.7,0,0,1,3.7-.6s-4.9-2.5-7.6-3a28.74,28.74,0,0,0-9.7-.2,14.52,14.52,0,0,0-4.7,1.6,24.23,24.23,0,0,0-3.7,3.2" transform="translate(-18.99 -5.91)"/><path id="path855" class="cls-12" d="M82.2,83.44a15.48,15.48,0,0,1,.4-7.1,12.48,12.48,0,0,1,2.8-4.1A10.1,10.1,0,0,1,86.7,71a6,6,0,0,1,3.3,2.5A7,7,0,0,1,92.6,72a5,5,0,0,1,3.9.9,6.11,6.11,0,0,1,1.7,3.5,7.07,7.07,0,0,1,.2,1.7l-2.2,1.5,2.4,1.3a7.12,7.12,0,0,1-1.1,2.2,4.3,4.3,0,0,1-3,1.1,9.32,9.32,0,0,1-1.5-1s-1.5,1.5-2.4,2.2a10,10,0,0,1-3.7,1.9c-1,.2-2.2.5-3,0-1.1-.8-1.4-2.5-1.7-3.9Z" transform="translate(-18.99 -5.91)"/><path id="path861" class="cls-3" d="M57.9,104.34l1.7,4.7,2.6-1.1-1.6-4.3" transform="translate(-18.99 -5.91)"/><path id="path859" class="cls-3" d="M54.2,95S52,98,52,99.84a4.64,4.64,0,0,0,1.7,3.2,5.63,5.63,0,0,0,3.2,1.3,6,6,0,0,0,3.7-.6,2.84,2.84,0,0,0,.6-1,9.46,9.46,0,0,0,3.4,1.6,9.87,9.87,0,0,0,.8-5.3l-1.9-.3-1.8-.4a7.32,7.32,0,0,0-1.5-2.6,9.12,9.12,0,0,0-3.1-.8" transform="translate(-18.99 -5.91)"/><path id="path863" class="cls-14" d="M55.7,99.14l-2.2-6.3s-5.3-2-7.3-3.8a18.77,18.77,0,0,1-4.5-6.9A17.4,17.4,0,0,1,40.2,75a12.51,12.51,0,0,1,2.4-7.3,7,7,0,0,1,3.9-2.6,7.16,7.16,0,0,1,4.7,1.1A13.84,13.84,0,0,1,55.7,71a22,22,0,0,1,2.9,6.9,21.13,21.13,0,0,1,.5,7.1,11.91,11.91,0,0,1-1.1,4.5,17.37,17.37,0,0,1-1.9,2.6l1.9,5.8C57.6,99.34,56.8,99.54,55.7,99.14Z" transform="translate(-18.99 -5.91)"/><path id="path867" class="cls-15" d="M55.7,146.84l-.2,4.2a33.55,33.55,0,0,0,3.5,2.1,11.42,11.42,0,0,0,2.6.9,26.77,26.77,0,0,0,5-.3,9.9,9.9,0,0,0-.4-2.9,17,17,0,0,0-2.8-3.6l-.6-.6Z" transform="translate(-18.99 -5.91)"/><path id="path873" class="cls-16" d="M79.4,138.24l2.1-4.6a43.06,43.06,0,0,1-5.2.3,16.37,16.37,0,0,1-3.8-.4c-1-.2-2-.8-3-1.1a9,9,0,0,0-2.8-.8,4.86,4.86,0,0,0-1.4.4l1.9,5.2" transform="translate(-18.99 -5.91)"/><path id="path871" class="cls-17" d="M80.1,140.64s.9-.6,1.1-1.1a1.76,1.76,0,0,0-.2-1.4,2.77,2.77,0,0,0-1.3-.6s-5.2.2-7.8.1c-1.7-.1-5-.6-5-.6s-1.3-.2-1.5,1,1.2,1.8,1.2,1.8a6.1,6.1,0,0,0,1.5.3c4,.2,12,.5,12,.5Z" transform="translate(-18.99 -5.91)"/><path id="path4645" class="cls-18" d="M34.8,51.94a255.86,255.86,0,0,1,31.4-2.7,14.28,14.28,0,0,0,1.5,4.2,7.08,7.08,0,0,0,2.4,2.7,26.92,26.92,0,0,0,4.5,2.3h0L58.2,59l-11.7,1.2-9.1,1.3Z" transform="translate(-18.99 -5.91)"/><path id="path865" class="cls-19" d="M68.4,38.34s-2.3,5.5-2.4,8.4a12.26,12.26,0,0,0,1.3,6,10.53,10.53,0,0,0,3,3.6,10.09,10.09,0,0,0,4.2,2,24.68,24.68,0,0,0,13.3-2.6c2.9-1.4,4.8-4.3,7.3-6.3a39.07,39.07,0,0,1,4.1-3c1-.6,3-1.5,3-1.5a41.59,41.59,0,0,1-6.9,1.7,36.32,36.32,0,0,1-10.4-.4A37.93,37.93,0,0,1,75.8,43c-2.5-1.3-7.4-4.7-7.4-4.7Z" transform="translate(-18.99 -5.91)"/><path id="path4643" class="cls-20" d="M116.6,42.74c4.8.9,10.2,3.1,9.9,3.3,0,0-3.4,4.1-5,6.3a82.38,82.38,0,0,0-5,8c-1.1,2-2.8,6.3-2.8,6.3-11.4-3-26.8-7.6-42.1-8.1,5.8.1,16,0,24.5-10.1C101.6,41.94,111.7,41.64,116.6,42.74Z" transform="translate(-18.99 -5.91)"/><path id="path4647" class="cls-7" d="M79.7,58.54c-.8,0,4.7-1.6,6.9-2.8a39.84,39.84,0,0,0,6.4-4.3c8.1,1.2,16.3,3.7,24.6,6.4l-2.4,5.1-1.5,3.6s-6.7-1.9-10.1-2.8c-2.9-.8-5.8-1.7-8.8-2.4-3.4-.8-6.8-1.2-10.2-1.8C83,59.24,79.7,58.54,79.7,58.54Z" transform="translate(-18.99 -5.91)"/><path id="path2341" class="cls-21" d="M56.5,160.54a20,20,0,0,0,4.9,4.3,14.46,14.46,0,0,0,6.7,2.3,22.73,22.73,0,0,0,8.6-.5,19,19,0,0,0,6-3.1,24.66,24.66,0,0,0,3.5-3.7" transform="translate(-18.99 -5.91)"/><g id="text6048"><path id="path6070" class="cls-22" d="M58.91,34.94a7.77,7.77,0,0,1,3.24,3.84,5.29,5.29,0,0,1-.62,4.56A5,5,0,0,1,57.78,46,6.5,6.5,0,0,1,53,44.84,7.79,7.79,0,0,1,49.76,41a5.29,5.29,0,0,1,.61-4.56,5,5,0,0,1,3.76-2.65A6.51,6.51,0,0,1,58.91,34.94Zm-5.23,8.79a6.17,6.17,0,0,0,3.92.82,3.91,3.91,0,0,0,2.86-2.08,4.72,4.72,0,0,0,.47-3.67A5.23,5.23,0,0,0,58.34,36a5.09,5.09,0,0,0-3.49-1,4.7,4.7,0,0,0-3.26,2,5.2,5.2,0,0,0-.5,3.86A6.15,6.15,0,0,0,53.68,43.73Zm11.24-3.9-1.47-.94.81-1.29,1.47.94Zm-12.56-7-1.47-.94.81-1.29,1.47.94Z" transform="translate(-18.99 -5.91)"/><g id="text6075"><path id="path6082" class="cls-23" d="M50,45.87l-2.46.57L44.44,41a5.73,5.73,0,0,0-2.08-2.19,3.81,3.81,0,0,0-2.54-.5L36,39c.65,3.13,1.76,6,2.43,9.29l-2.11.61c-2-7.07-3.67-14.59-6.16-21.92l7.59-1.65a9.09,9.09,0,0,1,3.42-.19,4.43,4.43,0,0,1,2.65,1.69,9.38,9.38,0,0,1,1.74,3.36,7.89,7.89,0,0,1,0,4,7.51,7.51,0,0,1-1.35,2.39c.77.67,1.12.71,2.76,3.61ZM35.2,36.31,40,35.43a4.6,4.6,0,0,0,2.85-1.52c.53-.73.56-1.71.21-3.21-.68-2.52-2.21-3.5-4.68-2.93L33,28.93C33.93,31.62,34.47,33.92,35.2,36.31Z" transform="translate(-18.99 -5.91)"/></g></g><g id="text6052"><path id="path6058" class="cls-24" d="M60.06,28.77a7.4,7.4,0,0,1-3.28-4.38,5.64,5.64,0,0,1,.8-4.44l1.72,1.2a3.67,3.67,0,0,0-.3,3.21,6.64,6.64,0,0,0,2.13,2.71,5,5,0,0,0,2.78,1.09,2.42,2.42,0,0,0,2-1,2.11,2.11,0,0,0,.16-2.33,16.81,16.81,0,0,0-2.53-3.36,8.69,8.69,0,0,1-2.33-3.83,4.19,4.19,0,0,1,.6-3.12A4.29,4.29,0,0,1,65,12.68a6.53,6.53,0,0,1,4.13,1.43A7.29,7.29,0,0,1,72,17.84,5,5,0,0,1,71.43,22l-1.72-1.21c.9-1.81.41-3.37-1.58-4.89a5.48,5.48,0,0,0-2.64-1.11,2,2,0,0,0-1.85.9,1.94,1.94,0,0,0-.26,1.77A9.49,9.49,0,0,0,65.2,20c1,1.19,1.73,2.06,2.3,2.82a4.92,4.92,0,0,1,.94,2.5,4.64,4.64,0,0,1-.73,2.78,4.31,4.31,0,0,1-3.32,1.95A5.94,5.94,0,0,1,60.06,28.77Z" transform="translate(-18.99 -5.91)"/><path id="path6060" class="cls-24" d="M77.38,40.65l-9.83-6.88,9.24-13.19,9.5,6.66L85.2,28.79l-7.78-5.45-2.81,4,7.29,5.1L80.81,34l-7.29-5.11-3.1,4.43L78.53,39Z" transform="translate(-18.99 -5.91)"/></g><g id="text6056"><path id="path6063" class="cls-25" d="M106.8,52.64l-1-.4,1.7-7.3-6.7,6.4-1.1-.2,7.7-7.4,1.4.5-1.4,6.5,6.4-6.1,1.1.2Z" transform="translate(-18.99 -5.91)"/><path id="path6065" class="cls-25" d="M116.2,51.34l1.3-5-3.7,4Zm-.1,4.3-.9-.3.7-2.9-3-1.3-2.5,2.6-1-.4,8.2-8.5,1,.4Z" transform="translate(-18.99 -5.91)"/></g><ellipse id="path6085" class="cls-26" cx="113.43" cy="71.08" rx="1.3" ry="1.6" transform="translate(23.19 178.5) rotate(-89.92)"/><ellipse id="ellipse6093" class="cls-26" cx="90.97" cy="68.49" rx="1.3" ry="1.6" transform="matrix(0, -1, 1, 0, 3.35, 153.45)"/><ellipse id="ellipse6095" class="cls-26" cx="95.83" cy="66.78" rx="1.3" ry="1.6" transform="translate(9.92 156.61) rotate(-89.92)"/><ellipse id="ellipse6097" class="cls-26" cx="101.32" cy="66.57" rx="1.3" ry="1.6" transform="translate(15.61 161.89) rotate(-89.92)"/><ellipse id="ellipse6099" class="cls-26" cx="65.31" cy="103.99" rx="1.3" ry="1.6" transform="translate(-57.77 163.23) rotate(-89.92)"/><ellipse id="ellipse6101" class="cls-26" cx="66.02" cy="101.76" rx="1.3" ry="1.6" transform="translate(-54.83 161.72) rotate(-89.92)"/><ellipse id="ellipse6103" class="cls-26" cx="66.25" cy="99.41" rx="1.3" ry="1.6" transform="translate(-52.25 159.6) rotate(-89.92)"/><ellipse id="ellipse6105" class="cls-26" cx="79.61" cy="96.6" rx="1.3" ry="1.6" transform="translate(-36.1 170.16) rotate(-89.92)"/><ellipse id="ellipse6107" class="cls-26" cx="79.48" cy="109.01" rx="1.3" ry="1.6" transform="translate(-48.65 182.42) rotate(-89.92)"/><ellipse id="ellipse6111" class="cls-26" cx="76.9" cy="126.13" rx="1.3" ry="1.6" transform="translate(-68.34 196.93) rotate(-89.92)"/><ellipse id="ellipse6113" class="cls-26" cx="97.53" cy="130.81" rx="1.3" ry="1.6" transform="matrix(0, -1, 1, 0, -52.41, 222.24)"/><ellipse id="ellipse6115" class="cls-26" cx="99.52" cy="124.84" rx="1.3" ry="1.6" transform="matrix(0, -1, 1, 0, -44.46, 218.26)"/><g id="g4605"><path id="path4601" class="cls-27" d="M47.37,86.56l4.06-4.93,4.61,1M45.76,74.88l5.46-2m.11,8.78L53.15,86M45.76,74.88a21.06,21.06,0,0,0-.64,3.75A5.5,5.5,0,0,0,45.65,81a8.9,8.9,0,0,0,1.93,1.82A10.77,10.77,0,0,1,44.15,81a5.15,5.15,0,0,1-1.07-3.32,8.51,8.51,0,0,1,.75-3.54,7.71,7.71,0,0,1,2.25-3.21,6,6,0,0,1,2.78-.85,6.39,6.39,0,0,1,2.47.53,9.81,9.81,0,0,1,3.21,2.25,5.15,5.15,0,0,1,1.07,3,11.48,11.48,0,0,1-1,3.32,10.69,10.69,0,0,0-.22-2.89A5.84,5.84,0,0,0,53.15,74a14.54,14.54,0,0,0-1.93-1.39,20,20,0,0,1,1.29,3.42,7.07,7.07,0,0,1,.21,3.32,2.37,2.37,0,0,1-1,1.29,2.3,2.3,0,0,1-1.18.42,3.22,3.22,0,0,1-1.93-.64A6.16,6.16,0,0,1,47,78.1a21.87,21.87,0,0,1-1.28-3.22" transform="translate(-18.99 -5.91)"/></g></g><g id="text4679"><path id="path4770" class="cls-25" d="M20.9,67.87l-.06-1.11L22.79,66a1.44,1.44,0,0,0,.86-.65,1.74,1.74,0,0,0,.25-1l-.11-1.91-3.27.18-.06-1L28,61.14l.18,3.41A4.59,4.59,0,0,1,28.07,66a1.6,1.6,0,0,1-.65.94,2.78,2.78,0,0,1-1.17.47,1.88,1.88,0,0,1-1.31-.44,2.58,2.58,0,0,1-.67-1.27h0A2.15,2.15,0,0,1,22.94,67Zm3.88-5.65.13,2.31a2.63,2.63,0,0,0,.37,1.39,1.05,1.05,0,0,0,1,.35c.9,0,1.27-.58,1.21-1.68l-.13-2.41Z" transform="translate(-18.99 -5.91)"/><path id="path4772" class="cls-25" d="M28.9,72.07A3.54,3.54,0,0,1,28,74.74a3.94,3.94,0,0,1-2.83,1.16,4.06,4.06,0,0,1-2.93-.85A3.69,3.69,0,0,1,21,72.5a3.35,3.35,0,0,1,.95-2.67,3.9,3.9,0,0,1,2.83-1.16,4,4,0,0,1,2.93.85A3.3,3.3,0,0,1,28.9,72.07ZM22,72.44a2.59,2.59,0,0,0,.89,1.87,3.18,3.18,0,0,0,2.32.58,2.94,2.94,0,0,0,2.15-.82A2.56,2.56,0,0,0,28,72.12a2.59,2.59,0,0,0-.89-1.87,3.19,3.19,0,0,0-2.33-.58,3.29,3.29,0,0,0-2.24.83A2.65,2.65,0,0,0,22,72.44Zm7.23,3-.05-1,1.09-.06.05,1Zm-.32-5.93-.05-1,1.09-.06.05,1Z" transform="translate(-18.99 -5.91)"/><path id="path4774" class="cls-25" d="M21.75,83.53l-.06-1,3.58-.2-.22-4-3.57.19-.06-1L29,77.1l.05,1-3.08.17.22,4,3.08-.16.05,1Z" transform="translate(-18.99 -5.91)"/><path id="path4776" class="cls-25" d="M22.09,90l-.25-4.72,7.55-.41.05,1-6.65.36.2,3.72Z" transform="translate(-18.99 -5.91)"/><path id="path4778" class="cls-25" d="M22.22,92.37l0-1L29.72,91l.05,1Z" transform="translate(-18.99 -5.91)"/><path id="path4780" class="cls-25" d="M22.64,100.2l-.05-1,5.74-4.34-6,.33-.05-1,7.55-.41.05,1-5.74,4.34,6-.33.05,1Z" transform="translate(-18.99 -5.91)"/><path id="path4782" class="cls-25" d="M22.81,105.22a3.77,3.77,0,0,1,1-2.77,3.94,3.94,0,0,1,2.83-1.16,3.93,3.93,0,0,1,2.93.85,3.68,3.68,0,0,1,1.23,2.55,3.51,3.51,0,0,1-.57,2.35,2.08,2.08,0,0,1-1.73,1.1l-.05-1a1.53,1.53,0,0,0,1.15-.77,3,3,0,0,0-.59-3.49,3.08,3.08,0,0,0-2.32-.58,3.31,3.31,0,0,0-2.25.82,2.64,2.64,0,0,0-.69,1.95,3.11,3.11,0,0,0,1.23,2.45l1.19-.06-.11-2,.9,0,.16,3-3.87.21,0-.71.78-.34C23.22,107.21,22.88,106.43,22.81,105.22Z" transform="translate(-18.99 -5.91)"/><path id="path4784" class="cls-25" d="M23.49,116l-.31-5.72,7.55-.41.3,5.52-.89.05-.25-4.52-2.28.12.23,4.22-.9,0-.23-4.22-2.58.14.26,4.72Z" transform="translate(-18.99 -5.91)"/><path id="path4786" class="cls-25" d="M23.91,123.79l-.06-1.1,1.95-.81a1.45,1.45,0,0,0,.86-.65,1.69,1.69,0,0,0,.25-1l-.1-1.91-3.28.18-.06-1,7.55-.41.19,3.42a4.47,4.47,0,0,1-.13,1.41,1.56,1.56,0,0,1-.64.94,2.75,2.75,0,0,1-1.17.47,1.88,1.88,0,0,1-1.32-.43,1.85,1.85,0,0,1-.77-1.27h0a2.13,2.13,0,0,1-1.32,1.28Zm3.88-5.65.13,2.31a2.69,2.69,0,0,0,.37,1.39,1,1,0,0,0,1,.35c.89,0,1.26-.57,1.2-1.68l-.13-2.41Z" transform="translate(-18.99 -5.91)"/></g><g id="text4683"><g id="g2339"><path id="path4687" class="cls-25" d="M102.9,155.25a3.7,3.7,0,0,1-2.31,1.37,2.65,2.65,0,0,1-2-.67l.77-.77a1.43,1.43,0,0,0,1.53.34,2.3,2.3,0,0,0,1.41-.94,3.09,3.09,0,0,0,.79-1.29,1.14,1.14,0,0,0-.35-1.13,1,1,0,0,0-1-.23,7.65,7.65,0,0,0-1.84,1,5.72,5.72,0,0,1-2,.92,1.55,1.55,0,0,1-1.38-.52,1.6,1.6,0,0,1-.52-1.7,3.05,3.05,0,0,1,1-2,4.53,4.53,0,0,1,1.55-1.12c.12-.08.31,0,.43-.11a2.19,2.19,0,0,1,1.88.53l-.77.77c-.77-.6-1.6-.47-2.42.5a3.26,3.26,0,0,0-.76,1.2,1.07,1.07,0,0,0,.27,1,.71.71,0,0,0,.86.2,4.22,4.22,0,0,0,1.36-.75c.59-.39,1.16-.68,1.51-.92a3.26,3.26,0,0,1,1.28-.34,1.77,1.77,0,0,1,1.27.6,2.06,2.06,0,0,1,.59,1.81,3.56,3.56,0,0,1-1.09,2.17Z" transform="translate(-18.99 -5.91)"/><path id="path4689" class="cls-25" d="M110.27,145.15,107,150.4l-6.67-4.13,3.14-5.07.79.49-2.54,4.16,2,1.29,2.38-3.88.79.5-2.38,3.87,2.3,1.36,2.67-4.33Z" transform="translate(-18.99 -5.91)"/><path id="path4691" class="cls-25" d="M112.85,138.59a3.71,3.71,0,0,1-1.65,2.46,4.25,4.25,0,0,1-3.18.34,3.86,3.86,0,0,1-2.63-1.64,3.5,3.5,0,0,1-.44-2.94,3.41,3.41,0,0,1,1.16-2.05,2.33,2.33,0,0,1,2-.59l-.25,1.1a1.49,1.49,0,0,0-1.3.44,2.61,2.61,0,0,0-.81,1.39,2.54,2.54,0,0,0,.33,2.07,4.17,4.17,0,0,0,4.58,1,2.35,2.35,0,0,0,1.18-1.73,2.58,2.58,0,0,0-.13-1.6,1.81,1.81,0,0,0-1.09-1l.25-1.1a2.64,2.64,0,0,1,1.68,1.43A2.88,2.88,0,0,1,112.85,138.59Z" transform="translate(-18.99 -5.91)"/><path id="path4693" class="cls-25" d="M115.87,127.82l-.34,1.08-3.58-1L110.82,132l3.57,1-.34,1.08L106.43,132l.34-1.08,3.1.91,1.13-4.16-3.1-.9.35-1.08Z" transform="translate(-18.99 -5.91)"/><path id="path4695" class="cls-25" d="M111.09,117.93l-.6,2.69,6.73,1.62-.24,1.1-6.74-1.62-.59,2.6-1-.21,1.53-6.38Z" transform="translate(-18.99 -5.91)"/><path id="path4697" class="cls-25" d="M115.36,114.06l-3.83.6,3.2,2.19Zm3.69-1.7-.27,1.2-2.59.37-.76,3.4,2.18,1.43-.25,1.1-7-4.83.27-1.2Z" transform="translate(-18.99 -5.91)"/><path id="path4699" class="cls-25" d="M120.54,104.82l-.25,1.1-7,2.83,6.1,1.37-.23,1-7.71-1.73.25-1.1,7-2.83-6.1-1.37.23-1Z" transform="translate(-18.99 -5.91)"/><path id="path4701" class="cls-25" d="M118.53,98.18l-3.84.6,3.21,2.2Zm3.71-1.8-.27,1.2-2.59.37-.76,3.4,2.18,1.43-.25,1.1-7-4.83.27-1.2Z" transform="translate(-18.99 -5.91)"/><path id="path4703" class="cls-25" d="M124,88.79l-.27,1.2-2.28.33a1.56,1.56,0,0,0-1,.5,2.24,2.24,0,0,0-.63,1l-.45,2,3.33.75-.25,1.09L114.68,94l.81-3.6A5.84,5.84,0,0,1,116,88.9a1.9,1.9,0,0,1,1-.83,1.86,1.86,0,0,1,1.33-.12,2,2,0,0,1,1.22.8,2.15,2.15,0,0,1,.38,1.44h0a2.21,2.21,0,0,1,1.72-1Zm-5.48,4.75.54-2.4a2.48,2.48,0,0,0,0-1.46,1.22,1.22,0,0,0-.93-.73c-.86-.2-1.47.3-1.72,1.4l-.56,2.49Z" transform="translate(-18.99 -5.91)"/><path id="path4705" class="cls-25" d="M125.23,79.94l-.17,1.22-2.2.45a2.18,2.18,0,0,0-1,.51,2.24,2.24,0,0,0-.53,1l-.35,2,3.28.52-.15,1.12-7.83-1.23.62-3.64a7.19,7.19,0,0,1,.43-1.48,1.76,1.76,0,0,1,.89-.85,2.81,2.81,0,0,1,1.35-.22,2,2,0,0,1,1.72,2.17h0c.23-.58.79-.87,1.64-1.1Zm-5.13,5,.35-2.44a2.53,2.53,0,0,0-.07-1.48c-.12-.35-.48-.53-1-.64-.88-.09-1.39.42-1.64,1.52l-.37,2.54Z" transform="translate(-18.99 -5.91)"/><path id="path4707" class="cls-25" d="M127,72.67l-1.25,6L118,77.05l1.21-5.82,1,.22-1,4.82,2.38.53.91-4.52,1,.22L122.49,77l2.57.57,1-4.92Z" transform="translate(-18.99 -5.91)"/><path id="path4709" class="cls-25" d="M128.6,65l-.24,1.1-7,2.83,6.09,1.37-.22,1-7.71-1.74.24-1.1,7-2.83-6.09-1.37.22-1Z" transform="translate(-18.99 -5.91)"/></g></g><text class="cls-28" transform="matrix(0.99, 0.16, -0.16, 0.99, 49.58, 46.17)">1970</text><path id="path4613" class="cls-29" d="M84,81.9a5.41,5.41,0,0,0,.1,2.5,1.06,1.06,0,0,0,.7.6,1.87,1.87,0,0,0,1.4-.5,6.48,6.48,0,0,0,1.9-2.1Z" transform="translate(-18.99 -5.91)"/><path id="path4615" class="cls-30" d="M86.8,76,85,78.9a2.62,2.62,0,0,0,.6.8,2,2,0,0,0,.8.3" transform="translate(-18.99 -5.91)"/><path id="path4617" class="cls-30" d="M89.3,78.4l-1.1-.3a7,7,0,0,1,1.3-2.3c.4-.3.9-.7,1.3-.5a1.05,1.05,0,0,1,.5.9,2.54,2.54,0,0,1-.3,1.2" transform="translate(-18.99 -5.91)"/><path id="path4619" class="cls-30" d="M84.7,77l-.8-.3a9.85,9.85,0,0,1,1.3-2.1c.4-.3.8-.9,1.3-.7a1.05,1.05,0,0,1,.5.9,2.54,2.54,0,0,1-.3,1.2" transform="translate(-18.99 -5.91)"/><ellipse id="path4626" class="cls-31" cx="89.46" cy="77.45" rx="1" ry="0.5" transform="translate(-27.18 138.38) rotate(-75.27)"/><ellipse id="ellipse4628" class="cls-32" cx="85.04" cy="76.05" rx="1" ry="0.5" transform="translate(-32.36 127.87) rotate(-72.2)"/><path id="path4630" class="cls-33" d="M74.7,87.7a20.58,20.58,0,0,0,1.5-1.5c.6-.7.8-1.1,1.4-1.3a1.51,1.51,0,0,1,2.1,2c-.5,1.5-3.3,3.2-3.3,3.2" transform="translate(-18.99 -5.91)"/><path id="path4632" class="cls-33" d="M79.7,92.4s.8-1.4,1.1-2.1-.1-1.5.4-1.9a1.91,1.91,0,0,1,1.8,0,2.13,2.13,0,0,1,1.1,1c.2.7-.6,1.3-.8,2a10.85,10.85,0,0,0-.1,2.4" transform="translate(-18.99 -5.91)"/><path id="path4634" class="cls-33" d="M88.2,94.3s-.3-1.4-.4-2.1c-.2-.9-.9-1.9-.4-2.7a2.47,2.47,0,0,1,2.3-1.2c.9.2,2,1,1.8,2a5.84,5.84,0,0,0,0,3.5" transform="translate(-18.99 -5.91)"/><path id="path4636" class="cls-33" d="M96.5,92.9a9.28,9.28,0,0,1-1.3-1.8,4.51,4.51,0,0,1-.5-2.5c.2-.6.7-1.2,1.3-1.2s1.3.7,1.7,1.4c.6,1,.3,3.2.3,3.2" transform="translate(-18.99 -5.91)"/></svg>